<?xml version="1.0" encoding="UTF-8"?> <svg xmlns="http://www.w3.org/2000/svg" width="600" height="600" fill="none"><g clip-path="url(#ai-ai-hero__a)"><path d="M469.565 0h-26.087m26.087 0v26.08m0-26.08h26.087m-52.174 0v26.08m0-26.08h-26.087m52.174 26.08h-26.087m26.087 0v26.08m0-26.08h26.087m-52.174 0v26.08m0-26.08h-26.087m52.174 26.08h-26.087m26.087 0v26.08m0-26.08h26.087m-52.174 0v26.08m0-26.08h-26.087m52.174 26.08h-26.087m26.087 0v26.079m0-26.08h26.087m-52.174 0v26.08m0-26.08h-26.087m52.174 26.08h-26.087m26.087 0v26.079m0-26.079h26.087m-52.174 0v26.079m0-26.079h-26.087m52.174 26.079h-26.087m26.087 0v26.08m0-26.08h26.087m-52.174 0v26.08m0-26.08h-26.087m52.174 26.08h-26.087m26.087 0v26.08m0-26.08h26.087m-52.174 0v26.08m0-26.08h-26.087m52.174 26.08h-26.087m26.087 0v26.08m0-26.08h26.087m-52.174 0v26.08m0-26.08h-26.087m52.174 26.08h-26.087m26.087 0v26.079m0-26.079h26.087m-52.174 0v26.079m0-26.079h-26.087m52.174 26.079h-26.087m26.087 0v26.08m0-26.08h26.087m-52.174 0v26.08m0-26.08h-26.087m52.174 26.08h-26.087m26.087 0v26.08m0-26.08h26.087m-52.174 0v26.08m0-26.08h-26.087m52.174 26.08h-26.087m26.087 0v26.079m0-26.079h26.087m-52.174 0v26.079m0-26.079h-26.087m52.174 26.079h-26.087m26.087 0h26.087m-52.174 0h-26.087m0-312.956v26.08m0-26.08h-26.087m26.087 26.08v26.08m0-26.08h-26.087m26.087 26.08v26.08m0-26.08h-26.087m26.087 26.08v26.079m0-26.08h-26.087m26.087 26.08v26.079m0-26.079h-26.087m26.087 26.079v26.08m0-26.08h-26.087m26.087 26.08v26.08m0-26.08h-26.087m26.087 26.08v26.08m0-26.08h-26.087m26.087 26.08v26.079m0-26.079h-26.087m26.087 26.079v26.08m0-26.08h-26.087m26.087 26.08v26.08m0-26.08h-26.087m26.087 26.08v26.079m0-26.079h-26.087m26.087 26.079h-26.087m0-312.956v26.08m0-26.08h-26.087m26.087 26.08v26.08m0-26.08h-26.087m26.087 26.08v26.08m0-26.08h-26.087m26.087 26.08v26.079m0-26.08h-26.087m26.087 26.08v26.079m0-26.079h-26.087m26.087 26.079v26.08m0-26.08h-26.087m26.087 26.08v26.08m0-26.08h-26.087m26.087 26.08v26.08m0-26.08h-26.087m26.087 26.08v26.079m0-26.079h-26.087m26.087 26.079v26.08m0-26.08h-26.087m26.087 26.08v26.08m0-26.08h-26.087m26.087 26.08v26.079m0-26.079h-26.087m26.087 26.079h-26.087m0-312.956v26.08m0-26.08h-26.086m26.086 26.08v26.08m0-26.08h-26.086m26.086 26.08v26.08m0-26.08h-26.086m26.086 26.08v26.079m0-26.08h-26.086m26.086 26.08v26.079m0-26.079h-26.086m26.086 26.079v26.08m0-26.08h-26.086m26.086 26.08v26.08m0-26.08h-26.086m26.086 26.08v26.08m0-26.08h-26.086m26.086 26.08v26.079m0-26.079h-26.086m26.086 26.079v26.08m0-26.08h-26.086m26.086 26.08v26.08m0-26.08h-26.086m26.086 26.08v26.079m0-26.079h-26.086m26.086 26.079h-26.086m0-312.956v26.08m0-26.08h-26.088m26.088 26.08v26.08m0-26.08h-26.088m26.088 26.08v26.08m0-26.08h-26.088m26.088 26.08v26.079m0-26.08h-26.088m26.088 26.08v26.079m0-26.079h-26.088m26.088 26.079v26.08m0-26.08h-26.088m26.088 26.08v26.08m0-26.08h-26.088m26.088 26.08v26.08m0-26.08h-26.088m26.088 26.08v26.079m0-26.079h-26.088m26.088 26.079v26.08m0-26.08h-26.088m26.088 26.08v26.08m0-26.08h-26.088m26.088 26.08v26.079m0-26.079h-26.088m26.088 26.079h-26.088m0-312.956v26.08m0-26.08h-26.086m26.086 26.08v26.08m0-26.08h-26.086m26.086 26.08v26.08m0-26.08h-26.086m26.086 26.08v26.079m0-26.08h-26.086m26.086 26.08v26.079m0-26.079h-26.086m26.086 26.079v26.08m0-26.08h-26.086m26.086 26.08v26.08m0-26.08h-26.086m26.086 26.08v26.08m0-26.08h-26.086m26.086 26.08v26.079m0-26.079h-26.086m26.086 26.079v26.08m0-26.08h-26.086m26.086 26.08v26.08m0-26.08h-26.086m26.086 26.08v26.079m0-26.079h-26.086m26.086 26.079h-26.086m0-312.956v26.08m0-26.08h-26.088m26.088 26.08v26.08m0-26.08h-26.088m26.088 26.08v26.08m0-26.08h-26.088m26.088 26.08v26.079m0-26.08h-26.088m26.088 26.08v26.079m0-26.079h-26.088m26.088 26.079v26.08m0-26.08h-26.088m26.088 26.08v26.08m0-26.08h-26.088m26.088 26.08v26.08m0-26.08h-26.088m26.088 26.08v26.079m0-26.079h-26.088m26.088 26.079v26.08m0-26.08h-26.088m26.088 26.08v26.08m0-26.08h-26.088m26.088 26.08v26.079m0-26.079h-26.088m26.088 26.079h-26.088m0-312.956v26.08m0-26.08h-26.086m26.086 26.08v26.08m0-26.08h-26.086m26.086 26.08v26.08m0-26.08h-26.086m26.086 26.08v26.079m0-26.08h-26.086m26.086 26.08v26.079m0-26.079h-26.086m26.086 26.079v26.08m0-26.08h-26.086m26.086 26.08v26.08m0-26.08h-26.086m26.086 26.08v26.08m0-26.08h-26.086m26.086 26.08v26.079m0-26.079h-26.086m26.086 26.079v26.08m0-26.08h-26.086m26.086 26.08v26.08m0-26.08h-26.086m26.086 26.08v26.079m0-26.079h-26.086m26.086 26.079h-26.086m0-312.956v26.08m0-26.08h-26.087m26.087 26.08v26.08m0-26.08h-26.087m26.087 26.08v26.08m0-26.08h-26.087m26.087 26.08v26.079m0-26.08h-26.087m26.087 26.08v26.079m0-26.079h-26.087m26.087 26.079v26.08m0-26.08h-26.087m26.087 26.08v26.08m0-26.08h-26.087m26.087 26.08v26.08m0-26.08h-26.087m26.087 26.08v26.079m0-26.079h-26.087m26.087 26.079v26.08m0-26.08h-26.087m26.087 26.08v26.08m0-26.08h-26.087m26.087 26.08v26.079m0-26.079h-26.087m26.087 26.079h-26.087m0-312.956v26.08m0-26.08h-26.087m26.087 26.08v26.08m0-26.08h-26.087m26.087 26.08v26.08m0-26.08h-26.087m26.087 26.08v26.079m0-26.08h-26.087m26.087 26.08v26.079m0-26.079h-26.087m26.087 26.079v26.08m0-26.08h-26.087m26.087 26.08v26.08m0-26.08h-26.087m26.087 26.08v26.08m0-26.08h-26.087m26.087 26.08v26.079m0-26.079h-26.087m26.087 26.079v26.08m0-26.08h-26.087m26.087 26.08v26.08m0-26.08h-26.087m26.087 26.08v26.079m0-26.079h-26.087m26.087 26.079h-26.087m0-312.956v26.08m0-26.08h-26.087m26.087 26.08v26.08m0-26.08h-26.087m26.087 26.08v26.08m0-26.08h-26.087m26.087 26.08v26.079m0-26.08h-26.087m26.087 26.08v26.079m0-26.079h-26.087m26.087 26.079v26.08m0-26.08h-26.087m26.087 26.08v26.08m0-26.08h-26.087m26.087 26.08v26.08m0-26.08h-26.087m26.087 26.08v26.079m0-26.079h-26.087m26.087 26.079v26.08m0-26.08h-26.087m26.087 26.08v26.08m0-26.08h-26.087m26.087 26.08v26.079m0-26.079h-26.087m26.087 26.079h-26.087m0-312.956v26.08m0-26.08h-26.087m26.087 26.08v26.08m0-26.08h-26.087m26.087 26.08v26.08m0-26.08h-26.087m26.087 26.08v26.079m0-26.08h-26.087m26.087 26.08v26.079m0-26.079h-26.087m26.087 26.079v26.08m0-26.08h-26.087m26.087 26.08v26.08m0-26.08h-26.087m26.087 26.08v26.08m0-26.08h-26.087m26.087 26.08v26.079m0-26.079h-26.087m26.087 26.079v26.08m0-26.08h-26.087m26.087 26.08v26.08m0-26.08h-26.087m26.087 26.08v26.079m0-26.079h-26.087m26.087 26.079h-26.087m0-312.956v26.08m0-26.08h-26.087m26.087 26.08v26.08m0-26.08h-26.087m26.087 26.08v26.08m0-26.08h-26.087m26.087 26.08v26.079m0-26.08h-26.087m26.087 26.08v26.079m0-26.079h-26.087m26.087 26.079v26.08m0-26.08h-26.087m26.087 26.08v26.08m0-26.08h-26.087m26.087 26.08v26.08m0-26.08h-26.087m26.087 26.08v26.079m0-26.079h-26.087m26.087 26.079v26.08m0-26.08h-26.087m26.087 26.08v26.08m0-26.08h-26.087m26.087 26.08v26.079m0-26.079h-26.087m26.087 26.079h-26.087m0-312.956v26.08m0-26.08H78.261m26.087 26.08v26.08m0-26.08H78.261m26.087 26.08v26.08m0-26.08H78.261m26.087 26.08v26.079m0-26.08H78.261m26.087 26.08v26.079m0-26.079H78.261m26.087 26.079v26.08m0-26.08H78.261m26.087 26.08v26.08m0-26.08H78.261m26.087 26.08v26.08m0-26.08H78.261m26.087 26.08v26.079m0-26.079H78.261m26.087 26.079v26.08m0-26.08H78.261m26.087 26.08v26.08m0-26.08H78.261m26.087 26.08v26.079m0-26.079H78.261m26.087 26.079H78.261M78.261 0v26.08m0-26.08H52.174m26.087 26.08v26.08m0-26.08H52.174m26.087 26.08v26.08m0-26.08H52.174m26.087 26.08v26.079m0-26.08H52.174m26.087 26.08v26.079m0-26.079H52.174m26.087 26.079v26.08m0-26.08H52.174m26.087 26.08v26.08m0-26.08H52.174m26.087 26.08v26.08m0-26.08H52.174m26.087 26.08v26.079m0-26.079H52.174m26.087 26.079v26.08m0-26.08H52.174m26.087 26.08v26.08m0-26.08H52.174m26.087 26.08v26.079m0-26.079H52.174m26.087 26.079H52.174M52.174 0v26.08m0-26.08H26.087m26.087 26.08v26.08m0-26.08H26.087m26.087 26.08v26.08m0-26.08H26.087m26.087 26.08v26.079m0-26.08H26.087m26.087 26.08v26.079m0-26.079H26.087m26.087 26.079v26.08m0-26.08H26.087m26.087 26.08v26.08m0-26.08H26.087m26.087 26.08v26.08m0-26.08H26.087m26.087 26.08v26.079m0-26.079H26.087m26.087 26.079v26.08m0-26.08H26.087m26.087 26.08v26.08m0-26.08H26.087m26.087 26.08v26.079m0-26.079H26.087m26.087 26.079H26.087M26.087 0v26.08m0-26.08H0v26.08m26.087 0v26.08m0-26.08H0m26.087 26.08v26.08m0-26.08H0m26.087 26.08v26.079m0-26.08H0m26.087 26.08v26.079m0-26.079H0m26.087 26.079v26.08m0-26.08H0m26.087 26.08v26.08m0-26.08H0m26.087 26.08v26.08m0-26.08H0m26.087 26.08v26.079m0-26.079H0m26.087 26.079v26.08m0-26.08H0m26.087 26.08v26.08m0-26.08H0m26.087 26.08v26.079m0-26.079H0m26.087 26.079H0v-26.079M0 26.08v26.08m0 0v26.08m0 0v26.079m0 0v26.079m0 0v26.08m0 0v26.08m0 0v26.08m0 0v26.079m0 0v26.08m0 0v26.08M600 26.08V0h-26.087M600 26.08v26.08m0-26.08h-26.087M600 52.16v26.08m0-26.08h-26.087M600 78.24v26.079m0-26.08h-26.087M600 104.32v26.079m0-26.079h-26.087M600 130.398v26.08m0-26.08h-26.087M600 156.478v26.08m0-26.08h-26.087M600 182.558v26.08m0-26.08h-26.087M600 208.638v26.079m0-26.079h-26.087M600 234.717v26.08m0-26.08h-26.087M600 260.797v26.08m0-26.08h-26.087M600 286.877v26.079h-26.087M600 286.877h-26.087m0-286.877v26.08m0-26.08h-26.087m26.087 26.08v26.08m0-26.08h-26.087m26.087 26.08v26.08m0-26.08h-26.087m26.087 26.08v26.079m0-26.08h-26.087m26.087 26.08v26.079m0-26.079h-26.087m26.087 26.079v26.08m0-26.08h-26.087m26.087 26.08v26.08m0-26.08h-26.087m26.087 26.08v26.08m0-26.08h-26.087m26.087 26.08v26.079m0-26.079h-26.087m26.087 26.079v26.08m0-26.08h-26.087m26.087 26.08v26.08m0-26.08h-26.087m26.087 26.08v26.079m0-26.079h-26.087m26.087 26.079h-26.087m0-312.956v26.08m0-26.08h-26.087m26.087 26.08v26.08m0-26.08h-26.087m26.087 26.08v26.08m0-26.08h-26.087m26.087 26.08v26.079m0-26.08h-26.087m26.087 26.08v26.079m0-26.079h-26.087m26.087 26.079v26.08m0-26.08h-26.087m26.087 26.08v26.08m0-26.08h-26.087m26.087 26.08v26.08m0-26.08h-26.087m26.087 26.08v26.079m0-26.079h-26.087m26.087 26.079v26.08m0-26.08h-26.087m26.087 26.08v26.08m0-26.08h-26.087m26.087 26.08v26.079m0-26.079h-26.087m26.087 26.079h-26.087m0-312.956v26.08m0-26.08h-26.087m26.087 26.08v26.08m0-26.08h-26.087m26.087 26.08v26.08m0-26.08h-26.087m26.087 26.08v26.079m0-26.08h-26.087m26.087 26.08v26.079m0-26.079h-26.087m26.087 26.079v26.08m0-26.08h-26.087m26.087 26.08v26.08m0-26.08h-26.087m26.087 26.08v26.08m0-26.08h-26.087m26.087 26.08v26.079m0-26.079h-26.087m26.087 26.079v26.08m0-26.08h-26.087m26.087 26.08v26.08m0-26.08h-26.087m26.087 26.08v26.079m0-26.079h-26.087m26.087 26.079h-26.087m0-312.956v26.08m0 0v26.08m0 0v26.08m0 0v26.079m0 0v26.079m0 0v26.08m0 0v26.08m0 0v26.08m0 0v26.079m0 0v26.08m0 0v26.08m0 0v26.079m-26.087.167v26.08m0-26.08h-26.087m26.087 0h26.087m-26.087 26.08h-26.087m26.087 0v26.079m0-26.079h26.087m-52.174 0v-26.08m0 26.08v26.079m0-26.079h-26.087m26.087-26.08h-26.087m52.174 52.159h-26.087m26.087 0v26.08m0-26.08h26.087m-52.174 0v26.08m0-26.08h-26.087m52.174 26.08h-26.087m26.087 0v26.08m0-26.08h26.087m-52.174 0v26.08m0-26.08h-26.087m52.174 26.08h-26.087m26.087 0v26.08m0-26.08h26.087m-52.174 0v26.08m0-26.08h-26.087m52.174 26.08h-26.087m26.087 0v26.079m0-26.079h26.087m-52.174 0v26.079m0-26.079h-26.087m52.174 26.079h-26.087m26.087 0v26.08m0-26.08h26.087m-52.174 0v26.08m0-26.08h-26.087m52.174 26.08h-26.087m26.087 0v26.08m0-26.08h26.087m-52.174 0v26.08m0-26.08h-26.087m52.174 26.08h-26.087m26.087 0v26.079m0-26.079h26.087m-52.174 0v26.079m0-26.079h-26.087m52.174 26.079h-26.087m26.087 0v26.08m0-26.08h26.087m-52.174 0v26.08m0-26.08h-26.087m52.174 26.08h-26.087m26.087 0V600m0-26.08h26.087m-52.174 0V600m0-26.08h-26.087M469.565 600h-26.087m26.087 0h26.087m-52.174 0h-26.087m0-260.797v-26.08m0 26.08v26.079m0-26.079h-26.087m26.087-26.08h-26.087m26.087 52.159v26.08m0-26.08h-26.087m26.087 26.08v26.08m0-26.08h-26.087m26.087 26.08v26.08m0-26.08h-26.087m26.087 26.08v26.079m0-26.079h-26.087m26.087 26.079v26.08m0-26.08h-26.087m26.087 26.08v26.08m0-26.08h-26.087m26.087 26.08v26.079m0-26.079h-26.087m26.087 26.079v26.08m0-26.08h-26.087m26.087 26.08V600m0-26.08h-26.087M417.391 600h-26.087m0-260.797v-26.08m0 26.08v26.079m0-26.079h-26.087m26.087-26.08h-26.087m26.087 52.159v26.08m0-26.08h-26.087m26.087 26.08v26.08m0-26.08h-26.087m26.087 26.08v26.08m0-26.08h-26.087m26.087 26.08v26.079m0-26.079h-26.087m26.087 26.079v26.08m0-26.08h-26.087m26.087 26.08v26.08m0-26.08h-26.087m26.087 26.08v26.079m0-26.079h-26.087m26.087 26.079v26.08m0-26.08h-26.087m26.087 26.08V600m0-26.08h-26.087M391.304 600h-26.087m0-260.797v-26.08m0 26.08v26.079m0-26.079h-26.086m26.086-26.08h-26.086m26.086 52.159v26.08m0-26.08h-26.086m26.086 26.08v26.08m0-26.08h-26.086m26.086 26.08v26.08m0-26.08h-26.086m26.086 26.08v26.079m0-26.079h-26.086m26.086 26.079v26.08m0-26.08h-26.086m26.086 26.08v26.08m0-26.08h-26.086m26.086 26.08v26.079m0-26.079h-26.086m26.086 26.079v26.08m0-26.08h-26.086m26.086 26.08V600m0-26.08h-26.086M365.217 600h-26.086m0-260.797v-26.08m0 26.08v26.079m0-26.079h-26.088m26.088-26.08h-26.088m26.088 52.159v26.08m0-26.08h-26.088m26.088 26.08v26.08m0-26.08h-26.088m26.088 26.08v26.08m0-26.08h-26.088m26.088 26.08v26.079m0-26.079h-26.088m26.088 26.079v26.08m0-26.08h-26.088m26.088 26.08v26.08m0-26.08h-26.088m26.088 26.08v26.079m0-26.079h-26.088m26.088 26.079v26.08m0-26.08h-26.088m26.088 26.08V600m0-26.08h-26.088M339.131 600h-26.088m0-260.797v-26.08m0 26.08v26.079m0-26.079h-26.086m26.086-26.08h-26.086m26.086 52.159v26.08m0-26.08h-26.086m26.086 26.08v26.08m0-26.08h-26.086m26.086 26.08v26.08m0-26.08h-26.086m26.086 26.08v26.079m0-26.079h-26.086m26.086 26.079v26.08m0-26.08h-26.086m26.086 26.08v26.08m0-26.08h-26.086m26.086 26.08v26.079m0-26.079h-26.086m26.086 26.079v26.08m0-26.08h-26.086m26.086 26.08V600m0-26.08h-26.086M313.043 600h-26.086m0-260.797v-26.08m0 26.08v26.079m0-26.079h-26.088m26.088-26.08h-26.088m26.088 52.159v26.08m0-26.08h-26.088m26.088 26.08v26.08m0-26.08h-26.088m26.088 26.08v26.08m0-26.08h-26.088m26.088 26.08v26.079m0-26.079h-26.088m26.088 26.079v26.08m0-26.08h-26.088m26.088 26.08v26.08m0-26.08h-26.088m26.088 26.08v26.079m0-26.079h-26.088m26.088 26.079v26.08m0-26.08h-26.088m26.088 26.08V600m0-26.08h-26.088M286.957 600h-26.088m0-260.797v-26.08m0 26.08v26.079m0-26.079h-26.086m26.086-26.08h-26.086m26.086 52.159v26.08m0-26.08h-26.086m26.086 26.08v26.08m0-26.08h-26.086m26.086 26.08v26.08m0-26.08h-26.086m26.086 26.08v26.079m0-26.079h-26.086m26.086 26.079v26.08m0-26.08h-26.086m26.086 26.08v26.08m0-26.08h-26.086m26.086 26.08v26.079m0-26.079h-26.086m26.086 26.079v26.08m0-26.08h-26.086m26.086 26.08V600m0-26.08h-26.086M260.869 600h-26.086m0-260.797v-26.08m0 26.08v26.079m0-26.079h-26.087m26.087-26.08h-26.087m26.087 52.159v26.08m0-26.08h-26.087m26.087 26.08v26.08m0-26.08h-26.087m26.087 26.08v26.08m0-26.08h-26.087m26.087 26.08v26.079m0-26.079h-26.087m26.087 26.079v26.08m0-26.08h-26.087m26.087 26.08v26.08m0-26.08h-26.087m26.087 26.08v26.079m0-26.079h-26.087m26.087 26.079v26.08m0-26.08h-26.087m26.087 26.08V600m0-26.08h-26.087M234.783 600h-26.087m0-260.797v-26.08m0 26.08v26.079m0-26.079h-26.087m26.087-26.08h-26.087m26.087 52.159v26.08m0-26.08h-26.087m26.087 26.08v26.08m0-26.08h-26.087m26.087 26.08v26.08m0-26.08h-26.087m26.087 26.08v26.079m0-26.079h-26.087m26.087 26.079v26.08m0-26.08h-26.087m26.087 26.08v26.08m0-26.08h-26.087m26.087 26.08v26.079m0-26.079h-26.087m26.087 26.079v26.08m0-26.08h-26.087m26.087 26.08V600m0-26.08h-26.087M208.696 600h-26.087m0-260.797v-26.08m0 26.08v26.079m0-26.079h-26.087m26.087-26.08h-26.087m26.087 52.159v26.08m0-26.08h-26.087m26.087 26.08v26.08m0-26.08h-26.087m26.087 26.08v26.08m0-26.08h-26.087m26.087 26.08v26.079m0-26.079h-26.087m26.087 26.079v26.08m0-26.08h-26.087m26.087 26.08v26.08m0-26.08h-26.087m26.087 26.08v26.079m0-26.079h-26.087m26.087 26.079v26.08m0-26.08h-26.087m26.087 26.08V600m0-26.08h-26.087M182.609 600h-26.087m0-260.797v-26.08m0 26.08v26.079m0-26.079h-26.087m26.087-26.08h-26.087m26.087 52.159v26.08m0-26.08h-26.087m26.087 26.08v26.08m0-26.08h-26.087m26.087 26.08v26.08m0-26.08h-26.087m26.087 26.08v26.079m0-26.079h-26.087m26.087 26.079v26.08m0-26.08h-26.087m26.087 26.08v26.08m0-26.08h-26.087m26.087 26.08v26.079m0-26.079h-26.087m26.087 26.079v26.08m0-26.08h-26.087m26.087 26.08V600m0-26.08h-26.087M156.522 600h-26.087m0-260.797v-26.08m0 26.08v26.079m0-26.079h-26.087m26.087-26.08h-26.087m26.087 52.159v26.08m0-26.08h-26.087m26.087 26.08v26.08m0-26.08h-26.087m26.087 26.08v26.08m0-26.08h-26.087m26.087 26.08v26.079m0-26.079h-26.087m26.087 26.079v26.08m0-26.08h-26.087m26.087 26.08v26.08m0-26.08h-26.087m26.087 26.08v26.079m0-26.079h-26.087m26.087 26.079v26.08m0-26.08h-26.087m26.087 26.08V600m0-26.08h-26.087M130.435 600h-26.087m0-260.797v-26.08m0 26.08v26.079m0-26.079H78.261m26.087-26.08H78.261m26.087 52.159v26.08m0-26.08H78.261m26.087 26.08v26.08m0-26.08H78.261m26.087 26.08v26.08m0-26.08H78.261m26.087 26.08v26.079m0-26.079H78.261m26.087 26.079v26.08m0-26.08H78.261m26.087 26.08v26.08m0-26.08H78.261m26.087 26.08v26.079m0-26.079H78.261m26.087 26.079v26.08m0-26.08H78.261m26.087 26.08V600m0-26.08H78.261M104.348 600H78.261m0-260.797v-26.08m0 26.08v26.079m0-26.079H52.174m26.087-26.08H52.174m26.087 52.159v26.08m0-26.08H52.174m26.087 26.08v26.08m0-26.08H52.174m26.087 26.08v26.08m0-26.08H52.174m26.087 26.08v26.079m0-26.079H52.174m26.087 26.079v26.08m0-26.08H52.174m26.087 26.08v26.08m0-26.08H52.174m26.087 26.08v26.079m0-26.079H52.174m26.087 26.079v26.08m0-26.08H52.174m26.087 26.08V600m0-26.08H52.174M78.261 600H52.174m0-260.797v-26.08m0 26.08v26.079m0-26.079H26.087m26.087-26.08H26.087m26.087 52.159v26.08m0-26.08H26.087m26.087 26.08v26.08m0-26.08H26.087m26.087 26.08v26.08m0-26.08H26.087m26.087 26.08v26.079m0-26.079H26.087m26.087 26.079v26.08m0-26.08H26.087m26.087 26.08v26.08m0-26.08H26.087m26.087 26.08v26.079m0-26.079H26.087m26.087 26.079v26.08m0-26.08H26.087m26.087 26.08V600m0-26.08H26.087M52.174 600H26.087m0-260.797v-26.08m0 26.08v26.079m0-26.079H0m26.087-26.08H0v26.08m26.087 26.079v26.08m0-26.08H0m26.087 26.08v26.08m0-26.08H0m26.087 26.08v26.08m0-26.08H0m26.087 26.08v26.079m0-26.079H0m26.087 26.079v26.08m0-26.08H0m26.087 26.08v26.08m0-26.08H0m26.087 26.08v26.079m0-26.079H0m26.087 26.079v26.08m0-26.08H0m26.087 26.08V600m0-26.08H0M26.087 600H0v-26.08m0-234.717v26.079m0 0v26.08m0 0v26.08m0 0v26.08m0 0v26.079m0 0v26.08m0 0v26.08m0 0v26.079m0 0v26.08m600-234.717v-26.08h-26.087M600 339.203v26.079m0-26.079h-26.087M600 365.282v26.08m0-26.08h-26.087M600 391.362v26.08m0-26.08h-26.087M600 417.442v26.08m0-26.08h-26.087M600 443.522v26.079m0-26.079h-26.087M600 469.601v26.08m0-26.08h-26.087M600 495.681v26.08m0-26.08h-26.087M600 521.761v26.079m0-26.079h-26.087M600 547.84v26.08m0-26.08h-26.087M600 573.92V600h-26.087M600 573.92h-26.087m0-234.717v-26.08m0 26.08v26.079m0-26.079h-26.087m26.087-26.08h-26.087m26.087 52.159v26.08m0-26.08h-26.087m26.087 26.08v26.08m0-26.08h-26.087m26.087 26.08v26.08m0-26.08h-26.087m26.087 26.08v26.079m0-26.079h-26.087m26.087 26.079v26.08m0-26.08h-26.087m26.087 26.08v26.08m0-26.08h-26.087m26.087 26.08v26.079m0-26.079h-26.087m26.087 26.079v26.08m0-26.08h-26.087m26.087 26.08V600m0-26.08h-26.087M573.913 600h-26.087m0-260.797v-26.08m0 26.08v26.079m0-26.079h-26.087m26.087-26.08h-26.087m26.087 52.159v26.08m0-26.08h-26.087m26.087 26.08v26.08m0-26.08h-26.087m26.087 26.08v26.08m0-26.08h-26.087m26.087 26.08v26.079m0-26.079h-26.087m26.087 26.079v26.08m0-26.08h-26.087m26.087 26.08v26.08m0-26.08h-26.087m26.087 26.08v26.079m0-26.079h-26.087m26.087 26.079v26.08m0-26.08h-26.087m26.087 26.08V600m0-26.08h-26.087M547.826 600h-26.087m0-260.797v-26.08m0 26.08v26.079m0-26.079h-26.087m26.087-26.08h-26.087m26.087 52.159v26.08m0-26.08h-26.087m26.087 26.08v26.08m0-26.08h-26.087m26.087 26.08v26.08m0-26.08h-26.087m26.087 26.08v26.079m0-26.079h-26.087m26.087 26.079v26.08m0-26.08h-26.087m26.087 26.08v26.08m0-26.08h-26.087m26.087 26.08v26.079m0-26.079h-26.087m26.087 26.079v26.08m0-26.08h-26.087m26.087 26.08V600m0-26.08h-26.087M521.739 600h-26.087m0-260.797v-26.08m0 26.08v26.079m0 0v26.08m0 0v26.08m0 0v26.08m0 0v26.079m0 0v26.08m0 0v26.08m0 0v26.079m0 0v26.08m0 0V600" stroke="url(#ai-ai-hero__b)" stroke-width=".5" stroke-miterlimit="10"></path><g filter="url(#ai-ai-hero__c)"><path d="M170.768 118.349v20.289a4 4 0 0 0 4 4h69.474a4 4 0 0 1 4 4v63.05m51.302-118.194v118.194m133.1-91.339v20.289a4 4 0 0 1-4 4h-72.268a4 4 0 0 0-4 4v63.05m-248.287-12.651h34.847a4 4 0 0 1 4 4v45.134a4 4 0 0 0 4 4h76.967m-105.004 49.604h105.004M104.089 404.839h34.847a4 4 0 0 0 4-4v-44.195a4 4 0 0 1 4-4h76.967m75.641 156.873V376.681M168.768 480.333v-20.685a4 4 0 0 1 4-4h69.906a4 4 0 0 0 4-4v-74.967m182.97 106.449v-23.482a4 4 0 0 0-4-4h-68.701a4 4 0 0 1-4-4v-74.967m143.341 26.302h-35.133a4 4 0 0 1-4-4v-42.339a4 4 0 0 0-4-4h-69.846m125.288-52.869H383.305m112.979-102.738h-35.133a4 4 0 0 0-4 4v42.134a4 4 0 0 1-4 4h-69.846" stroke="#0057FF"></path></g><circle cx="4.5" cy="4.5" r="4" transform="matrix(-1 0 0 1 175.19 113.394)" fill="#fff" stroke="#0057FF"></circle><circle cx="4.5" cy="4.5" r="4" transform="matrix(-1 0 0 1 303.885 86.706)" fill="#fff" stroke="#0057FF"></circle><circle cx="4.5" cy="4.5" r="4" transform="matrix(-1 0 0 1 436.978 112.422)" fill="#fff" stroke="#0057FF"></circle><circle cx="4.5" cy="4.5" r="4" transform="matrix(-1 0 0 1 500.14 192.574)" fill="#fff" stroke="#0057FF"></circle><circle cx="4.5" cy="4.5" r="4" transform="matrix(-1 0 0 1 513.089 295.5)" fill="#fff" stroke="#0057FF"></circle><circle cx="4.5" cy="4.5" r="4" transform="matrix(-1 0 0 1 500.14 399.097)" fill="#fff" stroke="#0057FF"></circle><circle cx="4.5" cy="4.5" r="4" transform="matrix(-1 0 0 1 434.198 478.883)" fill="#fff" stroke="#0057FF"></circle><circle cx="4.5" cy="4.5" r="4" transform="matrix(-1 0 0 1 304.5 505.114)" fill="#fff" stroke="#0057FF"></circle><circle cx="4.5" cy="4.5" r="4" transform="matrix(-1 0 0 1 173.345 476.333)" fill="#fff" stroke="#0057FF"></circle><circle cx="4.5" cy="4.5" r="4" transform="matrix(-1 0 0 1 108.216 400)" fill="#fff" stroke="#0057FF"></circle><circle cx="4.5" cy="4.5" r="4" transform="matrix(-1 0 0 1 124.218 295.5)" fill="#fff" stroke="#0057FF"></circle><circle cx="4.5" cy="4.5" r="4" transform="matrix(-1 0 0 1 108.216 192.574)" fill="#fff" stroke="#0057FF"></circle><g filter="url(#ai-ai-hero__d)"><g filter="url(#ai-ai-hero__e)"><rect x="200" y="200" width="200" height="200" rx="16" fill="url(#ai-ai-hero__f)"></rect></g><rect x="201" y="201" width="198" height="198" rx="15" stroke="#0057FF" stroke-width="2"></rect><mask id="ai-ai-hero__g" style="mask-type:alpha" maskUnits="userSpaceOnUse" x="202" y="202" width="196" height="196"><rect x="203.164" y="203.164" width="193.672" height="193.672" rx="13" fill="#fff" stroke="#0057FF" stroke-width="2"></rect></mask><g mask="url(#ai-ai-hero__g)"><path d="M356.522 200h-8.696m8.696 0v8.693m0-8.693h8.695m-17.391 0v8.693m0-8.693h-8.696m17.392 8.693h-8.696m8.696 0v8.694m0-8.694h8.695m-17.391 0v8.694m0-8.694h-8.696m17.392 8.694h-8.696m8.696 0v8.693m0-8.693h8.695m-17.391 0v8.693m0-8.693h-8.696m17.392 8.693h-8.696m8.696 0v8.693m0-8.693h8.695m-17.391 0v8.693m0-8.693h-8.696m17.392 8.693h-8.696m8.696 0v8.693m0-8.693h8.695m-17.391 0v8.693m0-8.693h-8.696m17.392 8.693h-8.696m8.696 0v8.693m0-8.693h8.695m-17.391 0v8.693m0-8.693h-8.696m17.392 8.693h-8.696m8.696 0v8.694m0-8.694h8.695m-17.391 0v8.694m0-8.694h-8.696m17.392 8.694h-8.696m8.696 0v8.693m0-8.693h8.695m-17.391 0v8.693m0-8.693h-8.696m17.392 8.693h-8.696m8.696 0v8.693m0-8.693h8.695m-17.391 0v8.693m0-8.693h-8.696m17.392 8.693h-8.696m8.696 0v8.693m0-8.693h8.695m-17.391 0v8.693m0-8.693h-8.696m17.392 8.693h-8.696m8.696 0v8.694m0-8.694h8.695m-17.391 0v8.694m0-8.694h-8.696m17.392 8.694h-8.696m8.696 0v8.693m0-8.693h8.695m-17.391 0v8.693m0-8.693h-8.696m17.392 8.693h-8.696m8.696 0h8.695m-17.391 0h-8.696m0-104.319v8.693m0-8.693h-8.695m8.695 8.693v8.694m0-8.694h-8.695m8.695 8.694v8.693m0-8.693h-8.695m8.695 8.693v8.693m0-8.693h-8.695m8.695 8.693v8.693m0-8.693h-8.695m8.695 8.693v8.693m0-8.693h-8.695m8.695 8.693v8.694m0-8.694h-8.695m8.695 8.694v8.693m0-8.693h-8.695m8.695 8.693v8.693m0-8.693h-8.695m8.695 8.693v8.693m0-8.693h-8.695m8.695 8.693v8.694m0-8.694h-8.695m8.695 8.694v8.693m0-8.693h-8.695m8.695 8.693h-8.695m0-104.319v8.693m0-8.693h-8.696m8.696 8.693v8.694m0-8.694h-8.696m8.696 8.694v8.693m0-8.693h-8.696m8.696 8.693v8.693m0-8.693h-8.696m8.696 8.693v8.693m0-8.693h-8.696m8.696 8.693v8.693m0-8.693h-8.696m8.696 8.693v8.694m0-8.694h-8.696m8.696 8.694v8.693m0-8.693h-8.696m8.696 8.693v8.693m0-8.693h-8.696m8.696 8.693v8.693m0-8.693h-8.696m8.696 8.693v8.694m0-8.694h-8.696m8.696 8.694v8.693m0-8.693h-8.696m8.696 8.693h-8.696m0-104.319v8.693m0-8.693h-8.695m8.695 8.693v8.694m0-8.694h-8.695m8.695 8.694v8.693m0-8.693h-8.695m8.695 8.693v8.693m0-8.693h-8.695m8.695 8.693v8.693m0-8.693h-8.695m8.695 8.693v8.693m0-8.693h-8.695m8.695 8.693v8.694m0-8.694h-8.695m8.695 8.694v8.693m0-8.693h-8.695m8.695 8.693v8.693m0-8.693h-8.695m8.695 8.693v8.693m0-8.693h-8.695m8.695 8.693v8.694m0-8.694h-8.695m8.695 8.694v8.693m0-8.693h-8.695m8.695 8.693h-8.695m0-104.319v8.693m0-8.693h-8.696m8.696 8.693v8.694m0-8.694h-8.696m8.696 8.694v8.693m0-8.693h-8.696m8.696 8.693v8.693m0-8.693h-8.696m8.696 8.693v8.693m0-8.693h-8.696m8.696 8.693v8.693m0-8.693h-8.696m8.696 8.693v8.694m0-8.694h-8.696m8.696 8.694v8.693m0-8.693h-8.696m8.696 8.693v8.693m0-8.693h-8.696m8.696 8.693v8.693m0-8.693h-8.696m8.696 8.693v8.694m0-8.694h-8.696m8.696 8.694v8.693m0-8.693h-8.696m8.696 8.693h-8.696m0-104.319v8.693m0-8.693h-8.696m8.696 8.693v8.694m0-8.694h-8.696m8.696 8.694v8.693m0-8.693h-8.696m8.696 8.693v8.693m0-8.693h-8.696m8.696 8.693v8.693m0-8.693h-8.696m8.696 8.693v8.693m0-8.693h-8.696m8.696 8.693v8.694m0-8.694h-8.696m8.696 8.694v8.693m0-8.693h-8.696m8.696 8.693v8.693m0-8.693h-8.696m8.696 8.693v8.693m0-8.693h-8.696m8.696 8.693v8.694m0-8.694h-8.696m8.696 8.694v8.693m0-8.693h-8.696m8.696 8.693h-8.696m0-104.319v8.693m0-8.693h-8.696m8.696 8.693v8.694m0-8.694h-8.696m8.696 8.694v8.693m0-8.693h-8.696m8.696 8.693v8.693m0-8.693h-8.696m8.696 8.693v8.693m0-8.693h-8.696m8.696 8.693v8.693m0-8.693h-8.696m8.696 8.693v8.694m0-8.694h-8.696m8.696 8.694v8.693m0-8.693h-8.696m8.696 8.693v8.693m0-8.693h-8.696m8.696 8.693v8.693m0-8.693h-8.696m8.696 8.693v8.694m0-8.694h-8.696m8.696 8.694v8.693m0-8.693h-8.696m8.696 8.693h-8.696m0-104.319v8.693m0-8.693h-8.695m8.695 8.693v8.694m0-8.694h-8.695m8.695 8.694v8.693m0-8.693h-8.695m8.695 8.693v8.693m0-8.693h-8.695m8.695 8.693v8.693m0-8.693h-8.695m8.695 8.693v8.693m0-8.693h-8.695m8.695 8.693v8.694m0-8.694h-8.695m8.695 8.694v8.693m0-8.693h-8.695m8.695 8.693v8.693m0-8.693h-8.695m8.695 8.693v8.693m0-8.693h-8.695m8.695 8.693v8.694m0-8.694h-8.695m8.695 8.694v8.693m0-8.693h-8.695m8.695 8.693h-8.695m0-104.319v8.693m0-8.693h-8.696m8.696 8.693v8.694m0-8.694h-8.696m8.696 8.694v8.693m0-8.693h-8.696m8.696 8.693v8.693m0-8.693h-8.696m8.696 8.693v8.693m0-8.693h-8.696m8.696 8.693v8.693m0-8.693h-8.696m8.696 8.693v8.694m0-8.694h-8.696m8.696 8.694v8.693m0-8.693h-8.696m8.696 8.693v8.693m0-8.693h-8.696m8.696 8.693v8.693m0-8.693h-8.696m8.696 8.693v8.694m0-8.694h-8.696m8.696 8.694v8.693m0-8.693h-8.696m8.696 8.693h-8.696m0-104.319v8.693m0-8.693h-8.695m8.695 8.693v8.694m0-8.694h-8.695m8.695 8.694v8.693m0-8.693h-8.695m8.695 8.693v8.693m0-8.693h-8.695m8.695 8.693v8.693m0-8.693h-8.695m8.695 8.693v8.693m0-8.693h-8.695m8.695 8.693v8.694m0-8.694h-8.695m8.695 8.694v8.693m0-8.693h-8.695m8.695 8.693v8.693m0-8.693h-8.695m8.695 8.693v8.693m0-8.693h-8.695m8.695 8.693v8.694m0-8.694h-8.695m8.695 8.694v8.693m0-8.693h-8.695m8.695 8.693h-8.695m0-104.319v8.693m0-8.693h-8.696m8.696 8.693v8.694m0-8.694h-8.696m8.696 8.694v8.693m0-8.693h-8.696m8.696 8.693v8.693m0-8.693h-8.696m8.696 8.693v8.693m0-8.693h-8.696m8.696 8.693v8.693m0-8.693h-8.696m8.696 8.693v8.694m0-8.694h-8.696m8.696 8.694v8.693m0-8.693h-8.696m8.696 8.693v8.693m0-8.693h-8.696m8.696 8.693v8.693m0-8.693h-8.696m8.696 8.693v8.694m0-8.694h-8.696m8.696 8.694v8.693m0-8.693h-8.696m8.696 8.693h-8.696m0-104.319v8.693m0-8.693h-8.696m8.696 8.693v8.694m0-8.694h-8.696m8.696 8.694v8.693m0-8.693h-8.696m8.696 8.693v8.693m0-8.693h-8.696m8.696 8.693v8.693m0-8.693h-8.696m8.696 8.693v8.693m0-8.693h-8.696m8.696 8.693v8.694m0-8.694h-8.696m8.696 8.694v8.693m0-8.693h-8.696m8.696 8.693v8.693m0-8.693h-8.696m8.696 8.693v8.693m0-8.693h-8.696m8.696 8.693v8.694m0-8.694h-8.696m8.696 8.694v8.693m0-8.693h-8.696m8.696 8.693h-8.696m0-104.319v8.693m0-8.693h-8.695m8.695 8.693v8.694m0-8.694h-8.695m8.695 8.694v8.693m0-8.693h-8.695m8.695 8.693v8.693m0-8.693h-8.695m8.695 8.693v8.693m0-8.693h-8.695m8.695 8.693v8.693m0-8.693h-8.695m8.695 8.693v8.694m0-8.694h-8.695m8.695 8.694v8.693m0-8.693h-8.695m8.695 8.693v8.693m0-8.693h-8.695m8.695 8.693v8.693m0-8.693h-8.695m8.695 8.693v8.694m0-8.694h-8.695m8.695 8.694v8.693m0-8.693h-8.695m8.695 8.693h-8.695m0-104.319v8.693m0-8.693h-8.696m8.696 8.693v8.694m0-8.694h-8.696m8.696 8.694v8.693m0-8.693h-8.696m8.696 8.693v8.693m0-8.693h-8.696m8.696 8.693v8.693m0-8.693h-8.696m8.696 8.693v8.693m0-8.693h-8.696m8.696 8.693v8.694m0-8.694h-8.696m8.696 8.694v8.693m0-8.693h-8.696m8.696 8.693v8.693m0-8.693h-8.696m8.696 8.693v8.693m0-8.693h-8.696m8.696 8.693v8.694m0-8.694h-8.696m8.696 8.694v8.693m0-8.693h-8.696m8.696 8.693h-8.696m0-104.319v8.693m0-8.693h-8.696m8.696 8.693v8.694m0-8.694h-8.696m8.696 8.694v8.693m0-8.693h-8.696m8.696 8.693v8.693m0-8.693h-8.696m8.696 8.693v8.693m0-8.693h-8.696m8.696 8.693v8.693m0-8.693h-8.696m8.696 8.693v8.694m0-8.694h-8.696m8.696 8.694v8.693m0-8.693h-8.696m8.696 8.693v8.693m0-8.693h-8.696m8.696 8.693v8.693m0-8.693h-8.696m8.696 8.693v8.694m0-8.694h-8.696m8.696 8.694v8.693m0-8.693h-8.696m8.696 8.693h-8.696m0-104.319v8.693m0-8.693h-8.695m8.695 8.693v8.694m0-8.694h-8.695m8.695 8.694v8.693m0-8.693h-8.695m8.695 8.693v8.693m0-8.693h-8.695m8.695 8.693v8.693m0-8.693h-8.695m8.695 8.693v8.693m0-8.693h-8.695m8.695 8.693v8.694m0-8.694h-8.695m8.695 8.694v8.693m0-8.693h-8.695m8.695 8.693v8.693m0-8.693h-8.695m8.695 8.693v8.693m0-8.693h-8.695m8.695 8.693v8.694m0-8.694h-8.695m8.695 8.694v8.693m0-8.693h-8.695m8.695 8.693h-8.695m0-104.319v8.693m0-8.693H200v8.693m8.696 0v8.694m0-8.694H200m8.696 8.694v8.693m0-8.693H200m8.696 8.693v8.693m0-8.693H200m8.696 8.693v8.693m0-8.693H200m8.696 8.693v8.693m0-8.693H200m8.696 8.693v8.694m0-8.694H200m8.696 8.694v8.693m0-8.693H200m8.696 8.693v8.693m0-8.693H200m8.696 8.693v8.693m0-8.693H200m8.696 8.693v8.694m0-8.694H200m8.696 8.694v8.693m0-8.693H200m8.696 8.693H200v-8.693m0-86.933v8.694m0 0v8.693m0 0v8.693m0 0v8.693m0 0v8.693m0 0v8.694m0 0v8.693m0 0v8.693m0 0v8.693m0 0v8.694m200-86.933V200h-8.696m8.696 8.693v8.694m0-8.694h-8.696m8.696 8.694v8.693m0-8.693h-8.696M400 226.08v8.693m0-8.693h-8.696m8.696 8.693v8.693m0-8.693h-8.696m8.696 8.693v8.693m0-8.693h-8.696m8.696 8.693v8.694m0-8.694h-8.696m8.696 8.694v8.693m0-8.693h-8.696m8.696 8.693v8.693m0-8.693h-8.696m8.696 8.693v8.693m0-8.693h-8.696m8.696 8.693v8.694m0-8.694h-8.696m8.696 8.694v8.693h-8.696m8.696-8.693h-8.696m0-95.626v8.693m0-8.693h-8.695m8.695 8.693v8.694m0-8.694h-8.695m8.695 8.694v8.693m0-8.693h-8.695m8.695 8.693v8.693m0-8.693h-8.695m8.695 8.693v8.693m0-8.693h-8.695m8.695 8.693v8.693m0-8.693h-8.695m8.695 8.693v8.694m0-8.694h-8.695m8.695 8.694v8.693m0-8.693h-8.695m8.695 8.693v8.693m0-8.693h-8.695m8.695 8.693v8.693m0-8.693h-8.695m8.695 8.693v8.694m0-8.694h-8.695m8.695 8.694v8.693m0-8.693h-8.695m8.695 8.693h-8.695m0-104.319v8.693m0-8.693h-8.696m8.696 8.693v8.694m0-8.694h-8.696m8.696 8.694v8.693m0-8.693h-8.696m8.696 8.693v8.693m0-8.693h-8.696m8.696 8.693v8.693m0-8.693h-8.696m8.696 8.693v8.693m0-8.693h-8.696m8.696 8.693v8.694m0-8.694h-8.696m8.696 8.694v8.693m0-8.693h-8.696m8.696 8.693v8.693m0-8.693h-8.696m8.696 8.693v8.693m0-8.693h-8.696m8.696 8.693v8.694m0-8.694h-8.696m8.696 8.694v8.693m0-8.693h-8.696m8.696 8.693h-8.696m0-104.319v8.693m0-8.693h-8.696m8.696 8.693v8.694m0-8.694h-8.696m8.696 8.694v8.693m0-8.693h-8.696m8.696 8.693v8.693m0-8.693h-8.696m8.696 8.693v8.693m0-8.693h-8.696m8.696 8.693v8.693m0-8.693h-8.696m8.696 8.693v8.694m0-8.694h-8.696m8.696 8.694v8.693m0-8.693h-8.696m8.696 8.693v8.693m0-8.693h-8.696m8.696 8.693v8.693m0-8.693h-8.696m8.696 8.693v8.694m0-8.694h-8.696m8.696 8.694v8.693m0-8.693h-8.696m8.696 8.693h-8.696m0-104.319v8.693m0 0v8.694m0 0v8.693m0 0v8.693m0 0v8.693m0 0v8.693m0 0v8.694m0 0v8.693m0 0v8.693m0 0v8.693m0 0v8.694m0 0v8.693m-8.695.055v8.694m0-8.694h-8.696m8.696 0h8.695m-8.695 8.694h-8.696m8.696 0v8.693m0-8.693h8.695m-17.391 0v-8.694m0 8.694v8.693m0-8.693h-8.696m8.696-8.694h-8.696m17.392 17.387h-8.696m8.696 0v8.693m0-8.693h8.695m-17.391 0v8.693m0-8.693h-8.696m17.392 8.693h-8.696m8.696 0v8.693m0-8.693h8.695m-17.391 0v8.693m0-8.693h-8.696m17.392 8.693h-8.696m8.696 0v8.694m0-8.694h8.695m-17.391 0v8.694m0-8.694h-8.696m17.392 8.694h-8.696m8.696 0v8.693m0-8.693h8.695m-17.391 0v8.693m0-8.693h-8.696m17.392 8.693h-8.696m8.696 0v8.693m0-8.693h8.695m-17.391 0v8.693m0-8.693h-8.696m17.392 8.693h-8.696m8.696 0v8.693m0-8.693h8.695m-17.391 0v8.693m0-8.693h-8.696m17.392 8.693h-8.696m8.696 0v8.693m0-8.693h8.695m-17.391 0v8.693m0-8.693h-8.696m17.392 8.693h-8.696m8.696 0v8.694m0-8.694h8.695m-17.391 0v8.694m0-8.694h-8.696m17.392 8.694h-8.696m8.696 0V400m0-8.693h8.695m-17.391 0V400m0-8.693h-8.696M356.522 400h-8.696m8.696 0h8.695m-17.391 0h-8.696m0-86.932v-8.694m0 8.694v8.693m0-8.693h-8.695m8.695-8.694h-8.695m8.695 17.387v8.693m0-8.693h-8.695m8.695 8.693v8.693m0-8.693h-8.695m8.695 8.693v8.694m0-8.694h-8.695m8.695 8.694v8.693m0-8.693h-8.695m8.695 8.693v8.693m0-8.693h-8.695m8.695 8.693v8.693m0-8.693h-8.695m8.695 8.693v8.693m0-8.693h-8.695m8.695 8.693v8.694m0-8.694h-8.695m8.695 8.694V400m0-8.693h-8.695M339.13 400h-8.695m0-86.932v-8.694m0 8.694v8.693m0-8.693h-8.696m8.696-8.694h-8.696m8.696 17.387v8.693m0-8.693h-8.696m8.696 8.693v8.693m0-8.693h-8.696m8.696 8.693v8.694m0-8.694h-8.696m8.696 8.694v8.693m0-8.693h-8.696m8.696 8.693v8.693m0-8.693h-8.696m8.696 8.693v8.693m0-8.693h-8.696m8.696 8.693v8.693m0-8.693h-8.696m8.696 8.693v8.694m0-8.694h-8.696m8.696 8.694V400m0-8.693h-8.696m8.696 8.693h-8.696m0-86.932v-8.694m0 8.694v8.693m0-8.693h-8.695m8.695-8.694h-8.695m8.695 17.387v8.693m0-8.693h-8.695m8.695 8.693v8.693m0-8.693h-8.695m8.695 8.693v8.694m0-8.694h-8.695m8.695 8.694v8.693m0-8.693h-8.695m8.695 8.693v8.693m0-8.693h-8.695m8.695 8.693v8.693m0-8.693h-8.695m8.695 8.693v8.693m0-8.693h-8.695m8.695 8.693v8.694m0-8.694h-8.695m8.695 8.694V400m0-8.693h-8.695m8.695 8.693h-8.695m0-86.932v-8.694m0 8.694v8.693m0-8.693h-8.696m8.696-8.694h-8.696m8.696 17.387v8.693m0-8.693h-8.696m8.696 8.693v8.693m0-8.693h-8.696m8.696 8.693v8.694m0-8.694h-8.696m8.696 8.694v8.693m0-8.693h-8.696m8.696 8.693v8.693m0-8.693h-8.696m8.696 8.693v8.693m0-8.693h-8.696m8.696 8.693v8.693m0-8.693h-8.696m8.696 8.693v8.694m0-8.694h-8.696m8.696 8.694V400m0-8.693h-8.696m8.696 8.693h-8.696m0-86.932v-8.694m0 8.694v8.693m0-8.693h-8.696m8.696-8.694h-8.696m8.696 17.387v8.693m0-8.693h-8.696m8.696 8.693v8.693m0-8.693h-8.696m8.696 8.693v8.694m0-8.694h-8.696m8.696 8.694v8.693m0-8.693h-8.696m8.696 8.693v8.693m0-8.693h-8.696m8.696 8.693v8.693m0-8.693h-8.696m8.696 8.693v8.693m0-8.693h-8.696m8.696 8.693v8.694m0-8.694h-8.696m8.696 8.694V400m0-8.693h-8.696m8.696 8.693h-8.696m0-86.932v-8.694m0 8.694v8.693m0-8.693h-8.696m8.696-8.694h-8.696m8.696 17.387v8.693m0-8.693h-8.696m8.696 8.693v8.693m0-8.693h-8.696m8.696 8.693v8.694m0-8.694h-8.696m8.696 8.694v8.693m0-8.693h-8.696m8.696 8.693v8.693m0-8.693h-8.696m8.696 8.693v8.693m0-8.693h-8.696m8.696 8.693v8.693m0-8.693h-8.696m8.696 8.693v8.694m0-8.694h-8.696m8.696 8.694V400m0-8.693h-8.696m8.696 8.693h-8.696m0-86.932v-8.694m0 8.694v8.693m0-8.693h-8.695m8.695-8.694h-8.695m8.695 17.387v8.693m0-8.693h-8.695m8.695 8.693v8.693m0-8.693h-8.695m8.695 8.693v8.694m0-8.694h-8.695m8.695 8.694v8.693m0-8.693h-8.695m8.695 8.693v8.693m0-8.693h-8.695m8.695 8.693v8.693m0-8.693h-8.695m8.695 8.693v8.693m0-8.693h-8.695m8.695 8.693v8.694m0-8.694h-8.695m8.695 8.694V400m0-8.693h-8.695m8.695 8.693h-8.695m0-86.932v-8.694m0 8.694v8.693m0-8.693h-8.696m8.696-8.694h-8.696m8.696 17.387v8.693m0-8.693h-8.696m8.696 8.693v8.693m0-8.693h-8.696m8.696 8.693v8.694m0-8.694h-8.696m8.696 8.694v8.693m0-8.693h-8.696m8.696 8.693v8.693m0-8.693h-8.696m8.696 8.693v8.693m0-8.693h-8.696m8.696 8.693v8.693m0-8.693h-8.696m8.696 8.693v8.694m0-8.694h-8.696m8.696 8.694V400m0-8.693h-8.696m8.696 8.693h-8.696m0-86.932v-8.694m0 8.694v8.693m0-8.693h-8.695m8.695-8.694h-8.695m8.695 17.387v8.693m0-8.693h-8.695m8.695 8.693v8.693m0-8.693h-8.695m8.695 8.693v8.694m0-8.694h-8.695m8.695 8.694v8.693m0-8.693h-8.695m8.695 8.693v8.693m0-8.693h-8.695m8.695 8.693v8.693m0-8.693h-8.695m8.695 8.693v8.693m0-8.693h-8.695m8.695 8.693v8.694m0-8.694h-8.695m8.695 8.694V400m0-8.693h-8.695m8.695 8.693h-8.695m0-86.932v-8.694m0 8.694v8.693m0-8.693h-8.696m8.696-8.694h-8.696m8.696 17.387v8.693m0-8.693h-8.696m8.696 8.693v8.693m0-8.693h-8.696m8.696 8.693v8.694m0-8.694h-8.696m8.696 8.694v8.693m0-8.693h-8.696m8.696 8.693v8.693m0-8.693h-8.696m8.696 8.693v8.693m0-8.693h-8.696m8.696 8.693v8.693m0-8.693h-8.696m8.696 8.693v8.694m0-8.694h-8.696m8.696 8.694V400m0-8.693h-8.696M260.87 400h-8.696m0-86.932v-8.694m0 8.694v8.693m0-8.693h-8.696m8.696-8.694h-8.696m8.696 17.387v8.693m0-8.693h-8.696m8.696 8.693v8.693m0-8.693h-8.696m8.696 8.693v8.694m0-8.694h-8.696m8.696 8.694v8.693m0-8.693h-8.696m8.696 8.693v8.693m0-8.693h-8.696m8.696 8.693v8.693m0-8.693h-8.696m8.696 8.693v8.693m0-8.693h-8.696m8.696 8.693v8.694m0-8.694h-8.696m8.696 8.694V400m0-8.693h-8.696m8.696 8.693h-8.696m0-86.932v-8.694m0 8.694v8.693m0-8.693h-8.695m8.695-8.694h-8.695m8.695 17.387v8.693m0-8.693h-8.695m8.695 8.693v8.693m0-8.693h-8.695m8.695 8.693v8.694m0-8.694h-8.695m8.695 8.694v8.693m0-8.693h-8.695m8.695 8.693v8.693m0-8.693h-8.695m8.695 8.693v8.693m0-8.693h-8.695m8.695 8.693v8.693m0-8.693h-8.695m8.695 8.693v8.694m0-8.694h-8.695m8.695 8.694V400m0-8.693h-8.695m8.695 8.693h-8.695m0-86.932v-8.694m0 8.694v8.693m0-8.693h-8.696m8.696-8.694h-8.696m8.696 17.387v8.693m0-8.693h-8.696m8.696 8.693v8.693m0-8.693h-8.696m8.696 8.693v8.694m0-8.694h-8.696m8.696 8.694v8.693m0-8.693h-8.696m8.696 8.693v8.693m0-8.693h-8.696m8.696 8.693v8.693m0-8.693h-8.696m8.696 8.693v8.693m0-8.693h-8.696m8.696 8.693v8.694m0-8.694h-8.696m8.696 8.694V400m0-8.693h-8.696m8.696 8.693h-8.696m0-86.932v-8.694m0 8.694v8.693m0-8.693h-8.696m8.696-8.694h-8.696m8.696 17.387v8.693m0-8.693h-8.696m8.696 8.693v8.693m0-8.693h-8.696m8.696 8.693v8.694m0-8.694h-8.696m8.696 8.694v8.693m0-8.693h-8.696m8.696 8.693v8.693m0-8.693h-8.696m8.696 8.693v8.693m0-8.693h-8.696m8.696 8.693v8.693m0-8.693h-8.696m8.696 8.693v8.694m0-8.694h-8.696m8.696 8.694V400m0-8.693h-8.696m8.696 8.693h-8.696m0-86.932v-8.694m0 8.694v8.693m0-8.693h-8.695m8.695-8.694h-8.695m8.695 17.387v8.693m0-8.693h-8.695m8.695 8.693v8.693m0-8.693h-8.695m8.695 8.693v8.694m0-8.694h-8.695m8.695 8.694v8.693m0-8.693h-8.695m8.695 8.693v8.693m0-8.693h-8.695m8.695 8.693v8.693m0-8.693h-8.695m8.695 8.693v8.693m0-8.693h-8.695m8.695 8.693v8.694m0-8.694h-8.695m8.695 8.694V400m0-8.693h-8.695m8.695 8.693h-8.695m0-86.932v-8.694m0 8.694v8.693m0-8.693H200m8.696-8.694H200v8.694m8.696 8.693v8.693m0-8.693H200m8.696 8.693v8.693m0-8.693H200m8.696 8.693v8.694m0-8.694H200m8.696 8.694v8.693m0-8.693H200m8.696 8.693v8.693m0-8.693H200m8.696 8.693v8.693m0-8.693H200m8.696 8.693v8.693m0-8.693H200m8.696 8.693v8.694m0-8.694H200m8.696 8.694V400m0-8.693H200m8.696 8.693H200v-8.693m0-78.239v8.693m0 0v8.693m0 0v8.693m0 0v8.694m0 0v8.693m0 0v8.693m0 0v8.693m0 0v8.693m0 0v8.694m200-78.239v-8.694h-8.696m8.696 8.694v8.693m0-8.693h-8.696m8.696 8.693v8.693m0-8.693h-8.696m8.696 8.693v8.693m0-8.693h-8.696m8.696 8.693v8.694m0-8.694h-8.696m8.696 8.694v8.693m0-8.693h-8.696m8.696 8.693v8.693m0-8.693h-8.696m8.696 8.693v8.693m0-8.693h-8.696M400 373.92v8.693m0-8.693h-8.696m8.696 8.693v8.694m0-8.694h-8.696m8.696 8.694V400h-8.696m8.696-8.693h-8.696m0-78.239v-8.694m0 8.694v8.693m0-8.693h-8.695m8.695-8.694h-8.695m8.695 17.387v8.693m0-8.693h-8.695m8.695 8.693v8.693m0-8.693h-8.695m8.695 8.693v8.694m0-8.694h-8.695m8.695 8.694v8.693m0-8.693h-8.695m8.695 8.693v8.693m0-8.693h-8.695m8.695 8.693v8.693m0-8.693h-8.695m8.695 8.693v8.693m0-8.693h-8.695m8.695 8.693v8.694m0-8.694h-8.695m8.695 8.694V400m0-8.693h-8.695m8.695 8.693h-8.695m0-86.932v-8.694m0 8.694v8.693m0-8.693h-8.696m8.696-8.694h-8.696m8.696 17.387v8.693m0-8.693h-8.696m8.696 8.693v8.693m0-8.693h-8.696m8.696 8.693v8.694m0-8.694h-8.696m8.696 8.694v8.693m0-8.693h-8.696m8.696 8.693v8.693m0-8.693h-8.696m8.696 8.693v8.693m0-8.693h-8.696m8.696 8.693v8.693m0-8.693h-8.696m8.696 8.693v8.694m0-8.694h-8.696m8.696 8.694V400m0-8.693h-8.696m8.696 8.693h-8.696m0-86.932v-8.694m0 8.694v8.693m0-8.693h-8.696m8.696-8.694h-8.696m8.696 17.387v8.693m0-8.693h-8.696m8.696 8.693v8.693m0-8.693h-8.696m8.696 8.693v8.694m0-8.694h-8.696m8.696 8.694v8.693m0-8.693h-8.696m8.696 8.693v8.693m0-8.693h-8.696m8.696 8.693v8.693m0-8.693h-8.696m8.696 8.693v8.693m0-8.693h-8.696m8.696 8.693v8.694m0-8.694h-8.696m8.696 8.694V400m0-8.693h-8.696m8.696 8.693h-8.696m0-86.932v-8.694m0 8.694v8.693m0 0v8.693m0 0v8.693m0 0v8.694m0 0v8.693m0 0v8.693m0 0v8.693m0 0v8.693m0 0v8.694m0 0V400" stroke="url(#ai-ai-hero__h)" stroke-width=".5" stroke-miterlimit="10"></path></g><path d="m299.748 328.707-16.987-53.648h-6.072l-17.063 53.648h4.766l5.149-16.371h20.292l5.072 16.371h4.843Zm-11.068-20.368h-18.063l8.763-28.361h.538l8.762 28.361Zm35.553-29.898c2.767 0 3.843-1.307 3.843-3.075v-.999c0-1.768-1.076-3.074-3.843-3.074s-3.843 1.306-3.843 3.074v.999c0 1.768 1.076 3.075 3.843 3.075Zm-17.063 50.266h33.204v-3.766h-13.912v-35.894H307.17v3.767h14.911v32.127H307.17v3.766Z" fill="#0057FF"></path></g><circle cx="528.052" cy="195.112" r="18.112" fill="#0057FF"></circle><path d="m529.743 186.51 7.471 12.938c.751 1.302-.188 2.929-1.691 2.929h-14.941c-1.503 0-2.442-1.627-1.691-2.929l7.471-12.938c.751-1.302 2.63-1.302 3.381 0Z" stroke="#fff" stroke-width=".857"></path><path d="m528.376 197.399.303-3.909v-2.559h-1.109v2.559l.302 3.909h.504Zm-.252 2.484c.53 0 .769-.29.769-.732v-.164c0-.441-.239-.731-.769-.731-.529 0-.769.29-.769.731v.164c0 .442.24.732.769.732Z" fill="#fff"></path><path d="m248.847 224.072-1.284-4.188h-.666l-1.284 4.188h.522l.354-1.194h1.47l.354 1.194h.534Zm-1.008-1.632h-1.23l.588-2.022h.054l.588 2.022Zm3.43-.156h.666l1.02 1.788h.564l-1.068-1.812c.666-.066 1.032-.498 1.032-1.17 0-.756-.42-1.206-1.194-1.206h-1.524v4.188h.504v-1.788Zm0-.426v-1.536h1.008c.42 0 .672.222.672.612v.312c0 .39-.252.612-.672.612h-1.008Zm7.203-1.536v-.438h-3.3v.438h1.398v3.75h.504v-3.75h1.398Zm4.444 3.75v-.402h-1.044v-3.384h1.044v-.402h-2.592v.402h1.044v3.384h-1.044v.402h2.592Zm2.746 0v-1.902h1.956v-.438h-1.956v-1.41h2.136v-.438h-2.64v4.188h.504Zm6.849 0v-.402h-1.044v-3.384h1.044v-.402h-2.592v.402h1.044v3.384h-1.044v.402h2.592Zm3.64.072c.768 0 1.086-.462 1.29-.918l-.432-.198c-.15.372-.348.678-.858.678-.666 0-.984-.546-.984-1.386v-.684c0-.84.318-1.386.984-1.386.51 0 .708.306.858.678l.432-.198c-.204-.456-.522-.918-1.29-.918-1.02 0-1.518.774-1.518 2.166s.498 2.166 1.518 2.166Zm5.956-.072v-.402h-1.044v-3.384h1.044v-.402h-2.592v.402h1.044v3.384h-1.044v.402h2.592Zm5.121 0-1.284-4.188h-.666l-1.284 4.188h.522l.354-1.194h1.47l.354 1.194h.534Zm-1.008-1.632h-1.23l.588-2.022h.054l.588 2.022Zm5.596 1.632v-.438h-1.986v-3.75h-.504v4.188h2.49Zm9.481 0v-.402h-1.044v-3.384h1.044v-.402h-2.592v.402h1.044v3.384h-1.044v.402h2.592Zm4.108 0h.714v-4.188h-.456v3.51h-.042l-1.428-3.51h-.714v4.188h.456v-3.546h.042l1.428 3.546Zm5.841-3.75v-.438h-3.3v.438h1.398v3.75h.504v-3.75h1.398Zm4.468 3.75v-.438h-2.076v-1.464h2.004v-.438h-2.004v-1.41h2.076v-.438h-2.58v4.188h2.58Zm4.888 0v-.438h-1.986v-3.75h-.504v4.188h2.49Zm4.797 0v-.438h-1.986v-3.75h-.504v4.188h2.49Zm4.684 0v-.402h-1.044v-3.384h1.044v-.402h-2.592v.402h1.044v3.384h-1.044v.402h2.592Zm4.366 0h.468v-2.07h-1.35v.402h.882v.432c0 .516-.324.882-.864.882-.684 0-.93-.594-.93-1.434v-.648c0-.84.306-1.386.978-1.386.504 0 .702.306.852.678l.432-.198c-.18-.456-.516-.918-1.302-.918-1.008 0-1.494.768-1.494 2.196 0 1.368.444 2.136 1.35 2.136.576 0 .81-.306.948-.63h.03v.558Zm5.253 0v-.438h-2.076v-1.464h2.004v-.438h-2.004v-1.41h2.076v-.438h-2.58v4.188h2.58Zm4.084 0h.714v-4.188h-.456v3.51h-.042l-1.428-3.51h-.714v4.188h.456v-3.546h.042l1.428 3.546Zm4.33.072c.768 0 1.086-.462 1.29-.918l-.432-.198c-.15.372-.348.678-.858.678-.666 0-.984-.546-.984-1.386v-.684c0-.84.318-1.386.984-1.386.51 0 .708.306.858.678l.432-.198c-.204-.456-.522-.918-1.29-.918-1.02 0-1.518.774-1.518 2.166s.498 2.166 1.518 2.166Zm5.979-.072v-.438h-2.076v-1.464h2.004v-.438h-2.004v-1.41h2.076v-.438h-2.58v4.188h2.58Zm-144.08 16.168h5.388v-.42h-5.388v.42Zm0 4.798h5.388v-.42h-5.388v.42Zm0 4.798h5.388v-.42h-5.388v.42Zm0 4.797h5.388v-.42h-5.388v.42Zm0 4.798h5.388v-.42h-5.388v.42Zm0 4.798h5.388v-.42h-5.388v.42Zm0 4.797h5.388v-.42h-5.388v.42Zm0 9.596h5.388v-.42h-5.388v.42Zm0 4.797h5.388v-.42h-5.388v.42Zm0 9.596h5.388v-.42h-5.388v.42Zm0 9.595h5.388v-.42h-5.388v.42Zm0 9.595h5.388v-.42h-5.388v.42Zm0 9.596h5.388v-.42h-5.388v.42Zm0 4.797h5.388v-.42h-5.388v.42Zm0 4.798h5.388v-.42h-5.388v.42Zm0 9.595h5.388v-.42h-5.388v.42Zm0 9.596h5.388v-.42h-5.388v.42Zm0 4.797h5.388v-.42h-5.388v.42Zm0 4.798h5.388v-.42h-5.388v.42ZM383.772 240.24h5.388v-.42h-5.388v.42Zm0 4.798h5.388v-.42h-5.388v.42Zm0 4.798h5.388v-.42h-5.388v.42Zm0 4.797h5.388v-.42h-5.388v.42Zm0 4.798h5.388v-.42h-5.388v.42Zm0 4.798h5.388v-.42h-5.388v.42Zm0 4.797h5.388v-.42h-5.388v.42Zm0 9.596h5.388v-.42h-5.388v.42Zm0 4.797h5.388v-.42h-5.388v.42Zm0 9.596h5.388v-.42h-5.388v.42Zm0 9.595h5.388v-.42h-5.388v.42Zm0 9.595h5.388v-.42h-5.388v.42Zm0 9.596h5.388v-.42h-5.388v.42Zm0 4.797h5.388v-.42h-5.388v.42Zm0 4.798h5.388v-.42h-5.388v.42Zm0 9.595h5.388v-.42h-5.388v.42Zm0 9.596h5.388v-.42h-5.388v.42Zm0 4.797h5.388v-.42h-5.388v.42Zm0 4.798h5.388v-.42h-5.388v.42Zm-141.343 20.339c1.02 0 1.464-.798 1.464-2.166 0-1.368-.444-2.166-1.464-2.166s-1.464.798-1.464 2.166c0 1.368.444 2.166 1.464 2.166Zm0-.438c-.672 0-.942-.546-.942-1.386v-.684c0-.84.27-1.386.942-1.386.672 0 .942.546.942 1.386v.684c0 .84-.27 1.386-.942 1.386Zm0-1.374c.276 0 .372-.126.372-.288v-.132c0-.162-.096-.288-.372-.288s-.372.126-.372.288v.132c0 .162.096.288.372.288Zm4.798 1.794c.324 0 .444-.156.444-.36v-.108c0-.204-.12-.36-.444-.36s-.444.156-.444.36v.108c0 .204.12.36.444.36Zm4.798.018c1.02 0 1.464-.798 1.464-2.166 0-1.368-.444-2.166-1.464-2.166s-1.464.798-1.464 2.166c0 1.368.444 2.166 1.464 2.166Zm0-.438c-.672 0-.942-.546-.942-1.386v-.684c0-.84.27-1.386.942-1.386.672 0 .942.546.942 1.386v.684c0 .84-.27 1.386-.942 1.386Zm0-1.374c.276 0 .372-.126.372-.288v-.132c0-.162-.096-.288-.372-.288s-.372.126-.372.288v.132c0 .162.096.288.372.288Zm4.797 1.812c1.02 0 1.464-.798 1.464-2.166 0-1.368-.444-2.166-1.464-2.166s-1.464.798-1.464 2.166c0 1.368.444 2.166 1.464 2.166Zm0-.438c-.672 0-.942-.546-.942-1.386v-.684c0-.84.27-1.386.942-1.386.672 0 .942.546.942 1.386v.684c0 .84-.27 1.386-.942 1.386Zm0-1.374c.276 0 .372-.126.372-.288v-.132c0-.162-.096-.288-.372-.288s-.372.126-.372.288v.132c0 .162.096.288.372.288Zm6.316 1.74v-.438h-1.104v-3.75h-.786l-1.11 1.038.294.318 1.056-.984h.042v3.378h-1.2v.438h2.808Zm3.28.054c.324 0 .444-.156.444-.36v-.108c0-.204-.12-.36-.444-.36s-.444.156-.444.36v.108c0 .204.12.36.444.36Zm6.315-.054v-.438h-1.104v-3.75h-.786l-1.11 1.038.294.318 1.056-.984h.042v3.378h-1.2v.438h2.808Zm3.28.054c.324 0 .444-.156.444-.36v-.108c0-.204-.12-.36-.444-.36s-.444.156-.444.36v.108c0 .204.12.36.444.36Zm4.798.018c1.02 0 1.464-.798 1.464-2.166 0-1.368-.444-2.166-1.464-2.166s-1.464.798-1.464 2.166c0 1.368.444 2.166 1.464 2.166Zm0-.438c-.672 0-.942-.546-.942-1.386v-.684c0-.84.27-1.386.942-1.386.672 0 .942.546.942 1.386v.684c0 .84-.27 1.386-.942 1.386Zm0-1.374c.276 0 .372-.126.372-.288v-.132c0-.162-.096-.288-.372-.288s-.372.126-.372.288v.132c0 .162.096.288.372.288Zm4.797 1.812c1.02 0 1.464-.798 1.464-2.166 0-1.368-.444-2.166-1.464-2.166s-1.464.798-1.464 2.166c0 1.368.444 2.166 1.464 2.166Zm0-.438c-.672 0-.942-.546-.942-1.386v-.684c0-.84.27-1.386.942-1.386.672 0 .942.546.942 1.386v.684c0 .84-.27 1.386-.942 1.386Zm0-1.374c.276 0 .372-.126.372-.288v-.132c0-.162-.096-.288-.372-.288s-.372.126-.372.288v.132c0 .162.096.288.372.288Zm4.798 1.812c1.02 0 1.464-.798 1.464-2.166 0-1.368-.444-2.166-1.464-2.166s-1.464.798-1.464 2.166c0 1.368.444 2.166 1.464 2.166Zm0-.438c-.672 0-.942-.546-.942-1.386v-.684c0-.84.27-1.386.942-1.386.672 0 .942.546.942 1.386v.684c0 .84-.27 1.386-.942 1.386Zm0-1.374c.276 0 .372-.126.372-.288v-.132c0-.162-.096-.288-.372-.288s-.372.126-.372.288v.132c0 .162.096.288.372.288Zm4.798 1.812c1.02 0 1.464-.798 1.464-2.166 0-1.368-.444-2.166-1.464-2.166s-1.464.798-1.464 2.166c0 1.368.444 2.166 1.464 2.166Zm0-.438c-.672 0-.942-.546-.942-1.386v-.684c0-.84.27-1.386.942-1.386.672 0 .942.546.942 1.386v.684c0 .84-.27 1.386-.942 1.386Zm0-1.374c.276 0 .372-.126.372-.288v-.132c0-.162-.096-.288-.372-.288s-.372.126-.372.288v.132c0 .162.096.288.372.288Zm4.797 1.794c.324 0 .444-.156.444-.36v-.108c0-.204-.12-.36-.444-.36s-.444.156-.444.36v.108c0 .204.12.36.444.36Zm6.316-.054v-.438h-1.104v-3.75h-.786l-1.11 1.038.294.318 1.056-.984h.042v3.378h-1.2v.438h2.808Zm3.279.054c.324 0 .444-.156.444-.36v-.108c0-.204-.12-.36-.444-.36s-.444.156-.444.36v.108c0 .204.12.36.444.36Zm4.798.018c1.02 0 1.464-.798 1.464-2.166 0-1.368-.444-2.166-1.464-2.166s-1.464.798-1.464 2.166c0 1.368.444 2.166 1.464 2.166Zm0-.438c-.672 0-.942-.546-.942-1.386v-.684c0-.84.27-1.386.942-1.386.672 0 .942.546.942 1.386v.684c0 .84-.27 1.386-.942 1.386Zm0-1.374c.276 0 .372-.126.372-.288v-.132c0-.162-.096-.288-.372-.288s-.372.126-.372.288v.132c0 .162.096.288.372.288Zm4.798 1.812c1.02 0 1.464-.798 1.464-2.166 0-1.368-.444-2.166-1.464-2.166s-1.464.798-1.464 2.166c0 1.368.444 2.166 1.464 2.166Zm0-.438c-.672 0-.942-.546-.942-1.386v-.684c0-.84.27-1.386.942-1.386.672 0 .942.546.942 1.386v.684c0 .84-.27 1.386-.942 1.386Zm0-1.374c.276 0 .372-.126.372-.288v-.132c0-.162-.096-.288-.372-.288s-.372.126-.372.288v.132c0 .162.096.288.372.288Zm4.797 1.812c1.02 0 1.464-.798 1.464-2.166 0-1.368-.444-2.166-1.464-2.166s-1.464.798-1.464 2.166c0 1.368.444 2.166 1.464 2.166Zm0-.438c-.672 0-.942-.546-.942-1.386v-.684c0-.84.27-1.386.942-1.386.672 0 .942.546.942 1.386v.684c0 .84-.27 1.386-.942 1.386Zm0-1.374c.276 0 .372-.126.372-.288v-.132c0-.162-.096-.288-.372-.288s-.372.126-.372.288v.132c0 .162.096.288.372.288Zm4.798 1.794c.324 0 .444-.156.444-.36v-.108c0-.204-.12-.36-.444-.36s-.444.156-.444.36v.108c0 .204.12.36.444.36Zm4.798.018c1.02 0 1.464-.798 1.464-2.166 0-1.368-.444-2.166-1.464-2.166s-1.464.798-1.464 2.166c0 1.368.444 2.166 1.464 2.166Zm0-.438c-.672 0-.942-.546-.942-1.386v-.684c0-.84.27-1.386.942-1.386.672 0 .942.546.942 1.386v.684c0 .84-.27 1.386-.942 1.386Zm0-1.374c.276 0 .372-.126.372-.288v-.132c0-.162-.096-.288-.372-.288s-.372.126-.372.288v.132c0 .162.096.288.372.288Zm4.797 1.794c.324 0 .444-.156.444-.36v-.108c0-.204-.12-.36-.444-.36s-.444.156-.444.36v.108c0 .204.12.36.444.36Zm6.316-.054v-.438h-1.104v-3.75h-.786l-1.11 1.038.294.318 1.056-.984h.042v3.378h-1.2v.438h2.808Zm4.798 0v-.438h-1.104v-3.75h-.786l-1.11 1.038.294.318 1.056-.984h.042v3.378h-1.2v.438h2.808Zm4.797 0v-.438h-1.104v-3.75h-.786l-1.11 1.038.294.318 1.056-.984h.042v3.378h-1.2v.438h2.808Zm4.798 0v-.438h-1.104v-3.75h-.786l-1.11 1.038.294.318 1.056-.984h.042v3.378h-1.2v.438h2.808Z" fill="#0057FF"></path><circle cx="70.561" cy="405.991" r="18.135" fill="#0057FF"></circle><path d="M62.627 398.624h1.142l2.804 11.333h8.13m-6.954-7.237 1.004 3.78m4.95-3.78 1.005 3.78m-3.917-3.78 1.005 3.78m-2.836 5.063c0 .887-.734 1.606-1.641 1.606s-1.642-.719-1.642-1.606c0-.887.735-1.606 1.642-1.606.906 0 1.641.719 1.641 1.606Zm7.359 0c0 .887-.735 1.606-1.642 1.606-.906 0-1.641-.719-1.641-1.606 0-.886.735-1.606 1.641-1.606.907 0 1.642.72 1.642 1.606Zm-12.037-10.73h13.603a.6.6 0 0 1 .59.745l-1.718 5.808c-.148.56-.663.953-1.254.953h-9.305l-1.916-7.506Z" stroke="#fff" stroke-width=".697" stroke-miterlimit="10" stroke-linecap="round"></path><circle cx="528.052" cy="404.888" r="18.112" fill="#0057FF"></circle><path d="M528.856 412.812v-1.562c2.353-.258 3.769-1.637 3.769-3.677 0-1.931-1.121-2.942-3.824-3.549v-4.063c1.121.184 1.912.736 2.5 1.508l1.214-.975c-.864-1.158-2.041-1.838-3.659-2.004v-1.525h-1.324v1.544c-2.169.22-3.621 1.397-3.621 3.346 0 1.875 1.121 2.941 3.677 3.511v4.45c-1.177-.166-2.096-.773-2.868-1.765l-1.195 1.084c.9 1.159 2.151 2.004 4.007 2.133v1.544h1.324Zm2.114-5.129c0 1.14-.827 1.93-2.169 2.133v-4.211c1.581.386 2.169.975 2.169 2.078Zm-5.405-5.92c0-1.011.772-1.636 2.023-1.802v3.806c-1.361-.386-2.023-.864-2.023-2.004Z" fill="#fff"></path><path d="M435.195 65.585c1.992-2.074 4.758-3.36 7.815-3.36 4.066 0 7.62 2.267 9.515 5.64a13.167 13.167 0 0 1 5.38-1.147c7.344 0 13.291 6 13.291 13.41 0 7.411-5.947 13.412-13.291 13.412-.899 0-1.77-.097-2.614-.263a9.705 9.705 0 0 1-8.478 4.977 9.494 9.494 0 0 1-4.246-.982c-1.687 3.968-5.629 6.761-10.207 6.761-4.578 0-8.851-3.014-10.4-7.258-.678.138-1.397.22-2.116.22-5.685 0-10.29-4.658-10.29-10.396 0-3.843 2.074-7.203 5.145-9a11.85 11.85 0 0 1-.982-4.756c0-6.609 5.366-11.96 11.977-11.96 3.859 0 7.316 1.84 9.501 4.702Z" fill="#77A5FF"></path><path d="M418.474 83.253c-.041.097.014.125.028.139.111.083.235.138.346.207.622.332 1.217.429 1.839.429 1.259 0 2.047-.678 2.047-1.756v-.028c0-.995-.885-1.369-1.715-1.631l-.11-.028c-.623-.207-1.162-.373-1.162-.788v-.028c0-.36.318-.608.802-.608.539 0 1.189.18 1.604.415 0 0 .125.083.166-.042.028-.069.235-.636.263-.69.028-.07-.014-.111-.055-.14-.47-.29-1.134-.483-1.812-.483h-.124c-1.162 0-1.964.705-1.964 1.7v.028c0 1.05.885 1.397 1.728 1.632l.139.041c.608.194 1.134.346 1.134.774v.028c0 .387-.346.677-.885.677-.208 0-.899 0-1.632-.47-.083-.055-.139-.083-.208-.138-.041-.028-.124-.055-.166.055l-.263.705Zm18.519 0c-.041.097.014.125.028.139.111.083.235.138.346.207.622.332 1.217.429 1.839.429 1.259 0 2.047-.678 2.047-1.756v-.028c0-.995-.885-1.369-1.715-1.631l-.111-.028c-.622-.207-1.161-.373-1.161-.788v-.028c0-.36.318-.608.802-.608.539 0 1.189.18 1.604.415 0 0 .125.083.166-.042.028-.069.235-.636.263-.69.028-.07-.014-.111-.055-.14-.471-.29-1.134-.483-1.812-.483h-.125c-1.161 0-1.964.705-1.964 1.7v.028c0 1.05.899 1.397 1.729 1.632l.139.041c.608.194 1.134.346 1.134.774v.028c0 .387-.346.677-.886.677-.207 0-.898 0-1.631-.47-.083-.055-.139-.083-.208-.138-.028-.014-.124-.055-.166.055l-.263.705Zm13.692-3.249a2.3 2.3 0 0 0-.484-.912 2.29 2.29 0 0 0-.816-.622c-.318-.152-.705-.221-1.134-.221-.429 0-.816.083-1.134.22a2.42 2.42 0 0 0-.816.623 2.64 2.64 0 0 0-.484.912 4.231 4.231 0 0 0-.152 1.134c0 .401.055.788.152 1.134.097.345.263.663.484.912.221.263.484.47.816.609.318.152.705.22 1.134.22.429 0 .802-.068 1.134-.22.318-.153.595-.36.816-.609.222-.262.374-.567.484-.912a4.23 4.23 0 0 0 .153-1.134c0-.4-.042-.788-.153-1.134Zm-1.051 1.134c0 .608-.11 1.092-.345 1.438-.222.332-.554.498-1.024.498s-.802-.166-1.023-.498c-.222-.346-.332-.83-.332-1.438s.11-1.092.332-1.424c.221-.332.553-.498 1.023-.498.47 0 .802.166 1.024.498.235.332.345.816.345 1.424Z" fill="#fff"></path><path fill-rule="evenodd" clip-rule="evenodd" d="M459.357 82.908c-.028-.097-.138-.07-.138-.07a2.61 2.61 0 0 1-.498.139c-.18.028-.374.041-.581.041-.512 0-.913-.152-1.203-.456-.291-.304-.457-.788-.457-1.438 0-.594.152-1.05.401-1.396.263-.346.65-.512 1.176-.512.429 0 .774.056 1.12.166 0 0 .083.042.125-.069.096-.263.166-.442.262-.719.028-.083-.041-.11-.069-.124a4.274 4.274 0 0 0-.705-.18 6.388 6.388 0 0 0-.788-.055c-.443 0-.844.083-1.176.221a2.75 2.75 0 0 0-.857.608 2.664 2.664 0 0 0-.512.913 3.733 3.733 0 0 0-.166 1.133c0 .871.235 1.577.705 2.102.47.525 1.176.788 2.089.788a4.43 4.43 0 0 0 1.493-.263s.083-.041.042-.124l-.263-.705Zm5.408-3.098c-.083-.345-.318-.677-.457-.829-.235-.248-.456-.414-.677-.511a2.601 2.601 0 0 0-1.024-.208c-.442 0-.857.07-1.175.236a2.34 2.34 0 0 0-.83.622 2.552 2.552 0 0 0-.484.926 3.735 3.735 0 0 0-.152 1.134c0 .4.055.801.166 1.147.11.346.276.65.511.913.235.249.54.456.899.594.36.138.802.207 1.3.207 1.038 0 1.577-.235 1.798-.359.042-.028.083-.055.028-.166l-.235-.65c-.042-.097-.139-.055-.139-.055-.262.097-.622.263-1.466.263-.553 0-.968-.166-1.217-.415-.262-.263-.401-.65-.415-1.19h3.569s.096 0 .11-.096c0-.069.111-.76-.11-1.562Zm-3.555.747c.056-.345.139-.622.291-.843.221-.332.553-.525 1.023-.525.47 0 .775.18.996.525.152.221.207.512.235.843h-2.545Zm-25.074-.747c-.083-.345-.318-.677-.457-.829-.235-.248-.456-.414-.677-.511a2.597 2.597 0 0 0-1.024-.208c-.442 0-.857.07-1.175.236a2.34 2.34 0 0 0-.83.622 2.568 2.568 0 0 0-.484.926 3.735 3.735 0 0 0-.152 1.134c0 .4.055.801.166 1.147.11.346.276.65.511.913.236.249.54.456.899.594.36.138.803.207 1.3.207 1.038 0 1.577-.235 1.798-.359.042-.028.083-.055.028-.166l-.235-.65c-.042-.097-.138-.055-.138-.055-.263.097-.623.263-1.466.263-.554 0-.969-.166-1.217-.415-.263-.263-.402-.65-.415-1.19h3.568s.097 0 .11-.096c0-.069.111-.76-.11-1.562Zm-3.555.747c.056-.345.139-.622.291-.843.221-.332.553-.525 1.023-.525.471 0 .775.18.996.525.152.221.208.512.235.843h-2.545Z" fill="#fff"></path><path d="M426.275 80.378c-.139-.014-.332-.014-.553-.014-.305 0-.609.041-.886.11a2.31 2.31 0 0 0-.746.346c-.222.152-.388.36-.512.595a1.744 1.744 0 0 0-.194.83c0 .317.056.594.166.815.111.221.263.415.47.553.194.138.443.249.733.318.277.069.595.097.941.097.373 0 .733-.028 1.093-.097.345-.055.774-.152.898-.18a3 3 0 0 0 .249-.069c.083-.028.083-.11.083-.11v-3.263c0-.72-.193-1.245-.567-1.576-.373-.332-.926-.498-1.645-.498-.263 0-.706.041-.955.083 0 0-.774.152-1.106.4 0 0-.069.042-.028.139l.249.677c.028.083.125.056.125.056l.055-.028c.691-.373 1.563-.36 1.563-.36.387 0 .677.084.885.236.194.152.29.373.29.857v.152c-.332-.042-.608-.07-.608-.07Zm-1.425 2.516c-.138-.11-.166-.138-.207-.207a.874.874 0 0 1-.111-.47c0-.319.111-.54.318-.692 0 0 .305-.263 1.038-.263.511 0 .968.084.968.084v1.63s-.457.098-.968.125c-.72.042-1.038-.207-1.038-.207Z" fill="#fff"></path><path fill-rule="evenodd" clip-rule="evenodd" d="M455.111 78.539c.028-.083-.028-.124-.055-.124-.056-.028-.36-.084-.595-.097-.456-.028-.705.041-.927.152-.221.097-.47.263-.608.442v-.442c0-.055-.042-.11-.097-.11h-.913c-.055 0-.097.04-.097.11v5.336a.11.11 0 0 0 .111.111h.941c.055 0 .11-.041.11-.11v-2.669c0-.36.042-.719.125-.94.083-.221.179-.401.318-.525a.968.968 0 0 1 .442-.263 1.574 1.574 0 0 1 .872-.014c.069.014.11-.041.138-.097.028-.166.194-.663.235-.76Zm-8.824-2.475c-.11-.041-.221-.055-.359-.083a2.542 2.542 0 0 0-.484-.041c-.65 0-1.162.18-1.508.539-.359.36-.595.899-.719 1.618l-.042.248h-.816s-.096 0-.124.111l-.138.747c-.014.069.027.11.11.11h.789l-.802 4.466c-.07.36-.139.65-.208.885-.083.22-.152.387-.249.511-.097.11-.18.207-.332.249a1.31 1.31 0 0 1-.415.055c-.083 0-.207-.013-.29-.027-.083-.014-.125-.042-.194-.056 0 0-.097-.041-.124.056-.028.083-.235.65-.263.732a.102.102 0 0 0 .055.139c.111.041.18.055.332.097.194.04.374.055.526.055a2.4 2.4 0 0 0 .871-.138 1.8 1.8 0 0 0 .664-.457 2.41 2.41 0 0 0 .47-.802c.125-.331.235-.732.318-1.202l.802-4.549h1.176s.097 0 .124-.11l.139-.747c.014-.07-.028-.11-.111-.11h-1.148c0-.028.056-.43.194-.803.055-.166.166-.29.249-.387a.876.876 0 0 1 .304-.193c.111-.042.235-.056.387-.056.111 0 .208.014.291.028.11.028.152.041.18.041.11.042.138 0 .152-.055l.276-.746c.014-.07-.055-.111-.083-.125Zm-15.96 7.729c0 .055-.041.11-.097.11h-.954c-.055 0-.097-.055-.097-.11V76.16c0-.055.042-.11.097-.11h.954c.056 0 .097.04.097.11v7.632Z" fill="#fff"></path><path d="m422.112 527.185-.295-1.651c-.078-.483-.196-1.225-.274-1.726h-.04c-.078.52-.215 1.281-.294 1.744l-.314 1.651h1.217v-.018Zm-1.374 1.076-.392 1.837h-1.413l1.766-7.625h1.726l1.609 7.625h-1.432l-.373-1.837h-1.491Zm6.533-1.576c0-.111 0-.223-.019-.334-.059-.371-.275-.723-.608-.723-.589 0-.805.797-.805 1.725 0 1.076.314 1.67.785 1.67.216 0 .471-.112.608-.557a.893.893 0 0 0 .059-.352v-1.429h-.02Zm1.452-4.415v6.252c0 .501.02 1.113.039 1.577h-1.255l-.079-.631h-.039c-.216.39-.667.723-1.216.723-1.197 0-1.805-1.261-1.805-2.838 0-1.929.883-2.876 1.864-2.876.51 0 .824.242 1 .575h.02v-2.782h1.471Zm3.022 6.844c.549 0 .686-.983.686-1.799 0-.817-.137-1.781-.706-1.781-.608 0-.746 1.02-.746 1.781 0 .946.157 1.799.766 1.799Zm-.02 1.058c-1.334 0-2.178-1.021-2.178-2.839 0-1.985 1.079-2.875 2.217-2.875 1.315 0 2.158 1.076 2.158 2.838-.019 2.282-1.314 2.876-2.197 2.876Zm4.434-2.058a.94.94 0 0 0 .059.352c.137.464.392.575.588.575.569 0 .785-.668.785-1.744 0-.983-.236-1.651-.785-1.651-.275 0-.51.278-.588.594-.02.093-.059.241-.059.352v1.522Zm-1.452-5.844h1.452v2.875h.019c.295-.426.667-.668 1.217-.668 1.098 0 1.648 1.188 1.648 2.709 0 1.948-.824 2.987-1.884 2.987-.51 0-.843-.204-1.157-.742h-.04l-.078.668h-1.256c.02-.464.04-1.076.04-1.577v-6.252h.039Zm7.828 4.525c0-.779-.236-1.317-.687-1.317-.529 0-.745.724-.765 1.317h1.452Zm-1.452.965c.02 1.002.569 1.317 1.256 1.317a3.64 3.64 0 0 0 1.098-.185l.197.983c-.393.167-.981.26-1.55.26-1.57 0-2.413-1.002-2.413-2.728 0-1.855.98-2.949 2.275-2.949s1.943.983 1.943 2.578c0 .371-.02.576-.04.742l-2.766-.018Zm-6.494-30.406h9.28v21.038l-9.28-21.038Zm-6.552 0h-9.3v21.038l9.3-21.038Zm3.276 7.754 5.925 13.284h-3.885l-1.765-4.23h-4.336l4.061-9.054Z" fill="#77A5FF"></path><circle cx="546.164" cy="300" r="27.168" fill="url(#ai-ai-hero__i)"></circle><path d="M541.043 286.416h13.65v23.772h-18.717v-18.705m5.067-5.067-5.067 5.067m5.067-5.067v5.067h-5.067m14.611 13.65h-3.842m-3.847 0h-3.843m12.493-3.384h-4.803m-2.887 0h-4.803m.325-4.019 2.537-2.149 2.235 1.831 2.232-3.031 2.043 2.929 2.945-4.902" stroke="#0057FF" stroke-width=".697" stroke-linecap="round" stroke-linejoin="round"></path><rect x="272.832" y="21.888" width="54.335" height="54.335" rx="27.168" fill="url(#ai-ai-hero__j)"></rect><path d="M311.881 41.213c-.875.398-2.496 1.032-3.485 1.153 1.007-.621 2.462-1.966 2.828-3.136a9.726 9.726 0 0 1-3.098 1.215 4.801 4.801 0 0 0-3.559-1.577c-2.692 0-4.874 2.238-4.874 4.998 0 .394.043.773.126 1.14-4.051-.21-7.649-2.203-10.054-5.227a5.108 5.108 0 0 0-.662 2.515c0 1.733 1.446 3.413 2.757 4.31-.797-.026-2.138-.397-2.792-.772v.062c0 2.426 2.631 4.49 4.862 4.95-.41.116-1.791.129-2.235.129-.314 0-.619-.031-.919-.09.618 1.988 2.422 3.436 4.556 3.476a9.635 9.635 0 0 1-6.055 2.14 9.86 9.86 0 0 1-1.163-.068 13.551 13.551 0 0 0 7.475 2.247c8.974 0 13.879-7.62 13.879-14.23 0-.22-.004-.434-.017-.648a10.029 10.029 0 0 0 2.435-2.591" stroke="#0057FF" stroke-width=".697" stroke-linecap="round" stroke-linejoin="round"></path><rect x="272.832" y="522.27" width="54.335" height="54.335" rx="27.168" fill="url(#ai-ai-hero__k)"></rect><path d="M295.847 549.44h9.988m-9.988 3.084h9.988m-9.988-6.173h9.988m6.051 3.084c0 5.995-5.018 10.855-11.209 10.855h-11.58c-.815 0-1.274-.902-.777-1.528l2.847-3.584a10.554 10.554 0 0 1-1.698-5.743c0-5.99 5.018-10.85 11.208-10.85 6.191 0 11.209 4.86 11.209 10.85Z" stroke="#0057FF" stroke-width=".697" stroke-miterlimit="10" stroke-linecap="round"></path><circle cx="169.112" cy="85.921" r="18.112" fill="#77A5FF"></circle><path d="M175.688 93.845h-12.769c-.717 0-1.277-.617-1.146-1.29A7.207 7.207 0 0 1 164 88.562a4.258 4.258 0 0 1 2.878-1.098h4.851c1.055 0 2.077.374 2.839 1.066 1.153 1.048 1.966 2.433 2.259 3.992.131.686-.41 1.322-1.139 1.322ZM169.3 85.42c2.14 0 3.874-1.662 3.874-3.712 0-2.049-1.734-3.71-3.874-3.71s-3.874 1.661-3.874 3.71c0 2.05 1.734 3.711 3.874 3.711Z" stroke="#fff" stroke-width=".697" stroke-miterlimit="10" stroke-linecap="round"></path><circle cx="169.135" cy="512.057" r="18.135" fill="#77A5FF"></circle><path d="M163.361 510.071h2.454v7.9h-2.454v-7.9Zm1.281-3.928a1.424 1.424 0 0 1 0 2.848 1.425 1.425 0 0 1 0-2.848Zm2.762 3.928h2.353v1.079h.033c.325-.622 1.126-1.277 2.32-1.277 2.482 0 2.938 1.636 2.938 3.763v4.335H172.6v-3.844c0-.916-.018-2.094-1.275-2.094s-1.469.999-1.469 2.028v3.91h-2.452v-7.9Z" fill="#fff"></path><circle cx="74.64" cy="195.089" r="18.135" fill="#0057FF"></circle><path d="m74.64 186.4 2.49 5.304 5.564.85-4.027 4.127.952 5.827-4.98-2.749-4.979 2.749.953-5.827-4.028-4.127 5.565-.85 2.49-5.304Z" stroke="#fff" stroke-width=".697" stroke-linecap="round" stroke-linejoin="round"></path><path d="M70.34 293.047c0 2.256-1.766 3.919-3.932 3.919-2.167 0-3.932-1.663-3.932-3.919 0-2.273 1.765-3.92 3.932-3.92 2.166 0 3.932 1.647 3.932 3.92Zm-1.722 0c0-1.41-1.023-2.375-2.21-2.375-1.188 0-2.21.965-2.21 2.375 0 1.396 1.022 2.375 2.21 2.375 1.187 0 2.21-.981 2.21-2.375Zm10.204 0c0 2.256-1.766 3.919-3.932 3.919s-3.932-1.663-3.932-3.919c0-2.271 1.766-3.92 3.932-3.92s3.932 1.647 3.932 3.92Zm-1.721 0c0-1.41-1.023-2.375-2.211-2.375s-2.21.965-2.21 2.375c0 1.396 1.022 2.375 2.21 2.375s2.21-.981 2.21-2.375Zm9.849-3.683v7.037c0 2.894-1.707 4.076-3.725 4.076-1.9 0-3.043-1.27-3.474-2.309l1.499-.624c.267.638.92 1.391 1.974 1.391 1.291 0 2.092-.797 2.092-2.298v-.563h-.06c-.385.475-1.128.89-2.064.89-1.96 0-3.755-1.707-3.755-3.903 0-2.213 1.795-3.934 3.755-3.934.935 0 1.677.416 2.064.877h.06v-.638h1.634v-.002Zm-1.512 3.697c0-1.38-.92-2.389-2.093-2.389-1.187 0-2.182 1.009-2.182 2.389 0 1.366.995 2.361 2.183 2.361 1.171 0 2.092-.995 2.092-2.361Zm4.207-7.821v11.486h-1.678V285.24h1.678Zm6.542 9.097 1.336.89c-.431.638-1.47 1.737-3.266 1.737-2.226 0-3.889-1.721-3.889-3.919 0-2.331 1.677-3.919 3.697-3.919 2.034 0 3.029 1.618 3.354 2.493l.178.445-5.24 2.17c.402.787 1.026 1.188 1.9 1.188.877 0 1.485-.431 1.93-1.085Zm-4.112-1.41 3.502-1.455c-.192-.489-.772-.83-1.454-.83-.875 0-2.092.772-2.048 2.285Zm-35.953-.9v-1.663h5.603c.055.29.083.633.083 1.004 0 1.248-.34 2.79-1.44 3.889-1.07 1.114-2.435 1.707-4.245 1.707-3.354 0-6.174-2.732-6.174-6.086 0-3.353 2.82-6.085 6.174-6.085 1.856 0 3.178.728 4.17 1.677l-1.173 1.173c-.712-.668-1.677-1.188-2.998-1.188-2.45 0-4.365 1.974-4.365 4.423 0 2.45 1.915 4.424 4.365 4.424 1.588 0 2.493-.638 3.073-1.218.47-.47.779-1.142.9-2.059l-3.973.002Zm-1.574 11.114-1.726 4.774h3.521l-1.74-4.774h-.055Zm-3.215 8.907H49.83l3.98-10.576h1.545l3.98 10.576h-1.503l-1.016-2.867h-4.453l-1.03 2.867Zm8.687-7.237h1.308v1.002h.056c.202-.351.518-.643.946-.876.435-.24.88-.362 1.336-.362.89 0 1.573.257 2.046.765.48.501.724 1.221.724 2.157v4.551h-1.364v-4.453c-.028-1.187-.623-1.782-1.782-1.782-.539 0-.995.223-1.363.668-.362.439-.543.957-.543 1.559v4.008H60.02v-7.237Zm8.933 5.024c0 .355.146.651.445.891.296.233.647.348 1.058.348.563 0 1.071-.209 1.516-.627.453-.424.682-.925.682-1.502-.428-.334-1.023-.501-1.781-.501-.55 0-1.009.135-1.378.403-.362.261-.543.592-.543.988Zm1.753-5.26c1.002 0 1.788.271 2.366.807.584.539.876 1.277.876 2.213v4.453h-1.294v-1.002H72.6c-.568.828-1.319 1.238-2.255 1.238-.8 0-1.468-.236-2.004-.709a2.273 2.273 0 0 1-.793-1.768c0-.751.282-1.343.849-1.781.564-.445 1.322-.668 2.268-.668.807 0 1.468.146 1.99.431v-.306c0-.473-.191-.869-.57-1.196a1.895 1.895 0 0 0-1.309-.501c-.761 0-1.36.32-1.795.96l-1.196-.752c.657-.946 1.631-1.419 2.922-1.419Zm6.088-3.103v10.576H75.43v-10.576h1.364Zm8.016 3.339-4.536 10.424h-1.391l1.684-3.646-2.992-6.778h1.475l2.157 5.205h.028l2.1-5.205h1.476Zm3.736 7.348c-.584 0-1.071-.181-1.46-.543-.39-.361-.592-.866-.6-1.516v-4.05h-1.28v-1.239h1.28v-2.212h1.35v2.212h1.782v1.239h-1.781v3.604c0 .484.09.814.278.988a.961.961 0 0 0 .64.251c.112 0 .216-.007.32-.028.101-.028.199-.059.293-.097l.417 1.21a3.884 3.884 0 0 1-1.239.181Zm4.046-9.839a.933.933 0 0 1-.292.682.91.91 0 0 1-.668.279.913.913 0 0 1-.682-.279.946.946 0 0 1-.278-.682c0-.267.09-.494.278-.681a.924.924 0 0 1 .682-.279.92.92 0 0 1 .668.279.909.909 0 0 1 .292.681Zm-.278 2.491v7.237H90.95v-7.237h1.364Zm4.581 7.473c-1.078 0-1.969-.365-2.672-1.099-.696-.741-1.043-1.659-1.043-2.755 0-1.114.347-2.032 1.043-2.756.703-.73 1.594-1.099 2.672-1.099.741 0 1.385.188 1.934.556.547.373.96.884 1.239 1.531l-1.239.515c-.382-.908-1.054-1.364-2.017-1.364-.623 0-1.162.251-1.615.752-.445.501-.668 1.124-.668 1.865 0 .744.223 1.363.668 1.864.453.501.992.752 1.615.752.991 0 1.687-.452 2.087-1.364l1.211.515a3.211 3.211 0 0 1-1.239 1.531c-.567.369-1.224.556-1.976.556Zm9.936-2.24c0 .633-.279 1.165-.835 1.6-.55.425-1.239.64-2.074.64-.724 0-1.364-.191-1.92-.57a3.165 3.165 0 0 1-1.183-1.503l1.21-.515c.185.438.446.776.78 1.016.341.243.713.362 1.113.362.435 0 .797-.091 1.086-.279.295-.184.445-.407.445-.668 0-.462-.358-.8-1.072-1.015l-1.238-.307c-1.413-.361-2.115-1.043-2.115-2.045 0-.658.267-1.187.807-1.587.535-.396 1.224-.598 2.059-.598.64 0 1.218.153 1.74.459.518.306.88.717 1.085 1.225l-1.21.501a1.503 1.503 0 0 0-.682-.71 2.056 2.056 0 0 0-1.03-.264c-.355 0-.675.09-.96.264-.279.177-.418.397-.418.654 0 .411.39.706 1.169.891l1.086.278c1.436.355 2.157 1.078 2.157 2.171Zm-69.853-21.712v22.415c0 2.511 1.73 3.906 3.566 3.906 1.698 0 3.566-1.188 3.566-3.906v-22.245c0-2.298-1.698-3.736-3.566-3.736-1.868 0-3.566 1.586-3.566 3.566Zm-9.34 11.377v11.038c0 2.511 1.73 3.906 3.566 3.906 1.698 0 3.566-1.188 3.566-3.906v-10.868c0-2.298-1.698-3.736-3.566-3.736-1.868 0-3.566 1.587-3.566 3.566Zm-2.208 11.378a3.567 3.567 0 1 1-7.133-.002 3.567 3.567 0 0 1 7.133.002Z" fill="#77A5FF"></path></g><defs><radialGradient id="ai-ai-hero__b" cx="0" cy="0" r="1" gradientUnits="userSpaceOnUse" gradientTransform="matrix(-.05314 284.526 -304.813 -.05692 300 300)"><stop stop-color="#0057FF"></stop><stop offset="1" stop-color="#0057FF" stop-opacity="0"></stop></radialGradient><radialGradient id="ai-ai-hero__h" cx="0" cy="0" r="1" gradientUnits="userSpaceOnUse" gradientTransform="matrix(136.6845 137.72187 -147.5416 146.43028 300 300)"><stop stop-color="#D6E3FC" stop-opacity="0"></stop><stop offset="1" stop-color="#76A5FF"></stop></radialGradient><radialGradient id="ai-ai-hero__i" cx="0" cy="0" r="1" gradientUnits="userSpaceOnUse" gradientTransform="rotate(147.282 258.773 221.057) scale(110.999)"><stop stop-color="#D6E3FC"></stop><stop offset="1" stop-color="#fff"></stop></radialGradient><radialGradient id="ai-ai-hero__j" cx="0" cy="0" r="1" gradientUnits="userSpaceOnUse" gradientTransform="rotate(147.282 172.522 59.455) scale(110.999)"><stop stop-color="#D6E3FC"></stop><stop offset="1" stop-color="#fff"></stop></radialGradient><radialGradient id="ai-ai-hero__k" cx="0" cy="0" r="1" gradientUnits="userSpaceOnUse" gradientTransform="rotate(147.282 99.081 309.646) scale(110.999)"><stop stop-color="#D6E3FC"></stop><stop offset="1" stop-color="#fff"></stop></radialGradient><filter id="ai-ai-hero__c" x="97.089" y="84.494" width="418.504" height="432.022" filterUnits="userSpaceOnUse" color-interpolation-filters="sRGB"><feFlood flood-opacity="0" result="BackgroundImageFix"></feFlood><feColorMatrix in="SourceAlpha" values="0 0 0 0 0 0 0 0 0 0 0 0 0 0 0 0 0 0 127 0" result="hardAlpha"></feColorMatrix><feOffset></feOffset><feGaussianBlur stdDeviation="3.5"></feGaussianBlur><feComposite in2="hardAlpha" operator="out"></feComposite><feColorMatrix values="0 0 0 0 0 0 0 0 0 0.341176 0 0 0 0 1 0 0 0 0.3 0"></feColorMatrix><feBlend in2="BackgroundImageFix" result="effect1_dropShadow_992_26593"></feBlend><feBlend in="SourceGraphic" in2="effect1_dropShadow_992_26593" result="shape"></feBlend></filter><filter id="ai-ai-hero__d" x="172" y="176" width="248" height="248" filterUnits="userSpaceOnUse" color-interpolation-filters="sRGB"><feFlood flood-opacity="0" result="BackgroundImageFix"></feFlood><feColorMatrix in="SourceAlpha" values="0 0 0 0 0 0 0 0 0 0 0 0 0 0 0 0 0 0 127 0" result="hardAlpha"></feColorMatrix><feOffset dx="-4"></feOffset><feGaussianBlur stdDeviation="12"></feGaussianBlur><feComposite in2="hardAlpha" operator="out"></feComposite><feColorMatrix values="0 0 0 0 0 0 0 0 0 0.341176 0 0 0 0 1 0 0 0 0.2 0"></feColorMatrix><feBlend in2="BackgroundImageFix" result="effect1_dropShadow_992_26593"></feBlend><feBlend in="SourceGraphic" in2="effect1_dropShadow_992_26593" result="shape"></feBlend></filter><filter id="ai-ai-hero__e" x="200" y="200" width="204" height="204" filterUnits="userSpaceOnUse" color-interpolation-filters="sRGB"><feFlood flood-opacity="0" result="BackgroundImageFix"></feFlood><feBlend in="SourceGraphic" in2="BackgroundImageFix" result="shape"></feBlend><feColorMatrix in="SourceAlpha" values="0 0 0 0 0 0 0 0 0 0 0 0 0 0 0 0 0 0 127 0" result="hardAlpha"></feColorMatrix><feOffset dx="4" dy="4"></feOffset><feGaussianBlur stdDeviation="6.5"></feGaussianBlur><feComposite in2="hardAlpha" operator="arithmetic" k2="-1" k3="1"></feComposite><feColorMatrix values="0 0 0 0 0 0 0 0 0 0.341176 0 0 0 0 1 0 0 0 0.2 0"></feColorMatrix><feBlend in2="shape" result="effect1_innerShadow_992_26593"></feBlend></filter><linearGradient id="ai-ai-hero__f" x1="417.942" y1="436.664" x2="235.722" y2="213.95" gradientUnits="userSpaceOnUse"><stop stop-color="#D6E3FC"></stop><stop offset="1" stop-color="#fff"></stop></linearGradient><clipPath id="ai-ai-hero__a"><path fill="#fff" d="M0 0h600v600H0z"></path></clipPath></defs></svg> 